<?xml version="1.0" standalone="no"?>
<!DOCTYPE svg PUBLIC "-//W3C//DTD SVG 1.1//EN" "http://www.w3.org/Graphics/SVG/1.1/DTD/svg11.dtd" >
<svg xmlns="http://www.w3.org/2000/svg" xmlns:xlink="http://www.w3.org/1999/xlink" version="1.1">
<metadata>
Created by FontForge 20161116 at Fri Jan 27 11:53:41 2012
 By Jimmy Warting
Mr Eaves is the sans-serif companion to Mrs Eaves.
</metadata>
<defs>
<font id="MrEavesModOT-Bold" horiz-adv-x="525" >
  <font-face 
    font-family="MrEavesModOT"
    font-weight="700"
    font-stretch="normal"
    units-per-em="1000"
    panose-1="2 11 8 3 6 5 2 2 2 2"
    ascent="800"
    descent="-200"
    x-height="341"
    cap-height="600"
    bbox="-143 -238.667 969 864"
    underline-thickness="30"
    underline-position="-100"
    stemh="97"
    stemv="112"
    unicode-range="U+0020-FB02"
  />
<missing-glyph horiz-adv-x="500" 
 />
    <glyph glyph-name="fi" unicode="fi" horiz-adv-x="519" 
d="M460 0h-112v341h112v-341zM460 444h-112v106h112v-106zM272 269h-84v-269h-112v269h-61v72h61v129c0 100 58 143 147 143c15 0 38 -4 47 -7v-72c-4 1 -17 5 -27 5c-36 0 -55 -17 -55 -70v-128h84v-72z" />
    <glyph glyph-name="fl" unicode="fl" horiz-adv-x="519" 
d="M348 520c-19 9 -49 18 -77 18c-51 0 -83 -20 -83 -88v-109h84v-72h-84v-269h-112v269h-61v72h61v95c0 123 74 178 178 178c29 0 69 -7 96 -16l110 15v-613h-112v520z" />
    <glyph glyph-name=".notdef" horiz-adv-x="500" 
 />
    <glyph glyph-name="Eth" unicode="&#xd0;" horiz-adv-x="655" 
d="M66 271h-58v60h58v269h211c240 0 341 -135 341 -300s-101 -300 -341 -300h-211v271zM188 331h122v-60h-122v-173h83c164 0 222 82 222 202s-58 202 -222 202h-83v-171z" />
    <glyph glyph-name="eth" unicode="&#xf0;" horiz-adv-x="472" 
d="M438 194c0 -122 -81 -209 -202 -209c-112 0 -201 79 -201 186c0 106 89 185 201 185c36 0 69 -11 91 -26c-18 49 -49 96 -80 134l-89 -50l-22 42l78 45c-31 33 -62 61 -88 79l40 39c27 -19 66 -47 105 -86l90 51l24 -41l-79 -46c79 -90 132 -191 132 -303zM325 171
c0 62 -35 102 -89 102c-53 0 -89 -40 -89 -102c0 -63 36 -103 89 -103c54 0 89 40 89 103z" />
    <glyph glyph-name="Lslash" unicode="&#x141;" horiz-adv-x="469" 
d="M66 243l-45 -29l-26 43l71 46v297h122v-219l65 42l27 -43l-92 -59v-226h269v-95h-391v243z" />
    <glyph glyph-name="lslash" unicode="&#x142;" horiz-adv-x="230" 
d="M245 368l-74 -48v-320h-112v252l-48 -32l-25 42l73 47v291h112v-222l49 32z" />
    <glyph glyph-name="Scaron" unicode="&#x160;" horiz-adv-x="497" 
d="M462 173c0 -129 -106 -185 -219 -185c-100 0 -172 39 -213 75l28 96c40 -38 103 -81 185 -81c60 0 106 30 106 83c0 50 -28 76 -126 100c-126 31 -176 98 -176 184c0 98 78 169 207 169c74 0 140 -28 180 -59l-26 -85c-42 28 -102 52 -155 52c-59 0 -94 -26 -94 -69
c0 -35 21 -62 103 -82c140 -35 200 -94 200 -198zM371 786l-131 -121l-130 121l33 34l97 -76l98 76z" />
    <glyph glyph-name="scaron" unicode="&#x161;" horiz-adv-x="354" 
d="M321 110c0 -74 -48 -123 -144 -123c-68 0 -117 26 -142 41l18 74c29 -18 70 -41 123 -41c32 0 49 10 49 32c0 20 -17 29 -57 36c-91 17 -121 64 -121 115c0 55 38 110 137 110c56 0 102 -23 122 -34l-17 -70c-34 19 -69 31 -103 31c-30 0 -43 -10 -43 -27
c0 -18 16 -25 46 -31c98 -19 132 -67 132 -113zM314 527l-131 -121l-130 121l33 34l97 -76l98 76z" />
    <glyph glyph-name="Yacute" unicode="&#xdd;" horiz-adv-x="596" 
d="M594 600l-235 -360v-240h-122v240l-235 360h133l165 -261l165 261h129zM430 746l-173 -84l-18 30l147 122z" />
    <glyph glyph-name="yacute" unicode="&#xfd;" horiz-adv-x="409" 
d="M404 341l-231 -536h-108l89 204l-143 332h108l89 -225l90 225h106zM334 487l-173 -84l-18 30l147 122z" />
    <glyph glyph-name="Thorn" unicode="&#xde;" horiz-adv-x="516" 
d="M66 600h122v-100h106c144 0 208 -88 208 -191c0 -104 -64 -191 -208 -191h-106v-118h-122v600zM381 309c0 56 -28 104 -107 104h-86v-208h86c79 0 107 47 107 104z" />
    <glyph glyph-name="thorn" unicode="&#xfe;" horiz-adv-x="490" 
d="M339 170c0 67 -41 102 -86 102c-43 0 -86 -33 -86 -102s43 -101 86 -101c45 0 86 35 86 101zM171 303c30 37 77 51 118 51c91 0 162 -74 162 -184c0 -108 -71 -183 -162 -183c-42 0 -87 14 -118 51v-233h-112v795h112v-297z" />
    <glyph glyph-name="Zcaron" unicode="&#x17d;" horiz-adv-x="518" 
d="M482 600v-59l-292 -446h290v-95h-444v59l292 446h-288v95h442zM389 786l-131 -121l-130 121l33 34l97 -76l98 76z" />
    <glyph glyph-name="zcaron" unicode="&#x17e;" horiz-adv-x="380" 
d="M347 0h-314v41l166 223h-156v77h300v-41l-167 -223h171v-77zM322 527l-131 -121l-130 121l33 34l97 -76l98 76z" />
    <glyph glyph-name="DLE" horiz-adv-x="482" 
d="M442 66l-49 -48l-71 71c-24 -15 -52 -23 -82 -23s-58 8 -81 23l-70 -70l-48 48l70 69c-16 24 -25 53 -25 83s9 58 24 82l-69 69l48 49l69 -71c24 16 52 24 82 24s59 -8 82 -24l71 71l49 -47l-72 -72c15 -23 24 -51 24 -81s-9 -59 -24 -82zM329 219c0 48 -40 88 -89 88
s-89 -40 -89 -88c0 -49 40 -88 89 -88s89 39 89 88z" />
    <glyph glyph-name="onehalf" unicode="&#xbd;" horiz-adv-x="656" 
d="M598 0h-229v39l75 78c31 32 61 64 61 103c0 34 -25 46 -46 46c-25 0 -50 -10 -82 -36v66c21 17 65 33 101 33c63 0 112 -38 112 -99c0 -54 -35 -93 -66 -120l-52 -46h126v-64zM512 598l-384 -616l-39 20l383 616zM178 280h-84v260h-34v49l118 18v-327z" />
    <glyph glyph-name="onequarter" unicode="&#xbc;" horiz-adv-x="655" 
d="M600 71h-60v-71h-84v71h-145v41l155 210h74v-193h60v-58zM512 598l-384 -616l-39 20l383 616zM178 280h-84v260h-34v49l118 18v-327zM456 129v101l-76 -101h76z" />
    <glyph glyph-name="onesuperior" unicode="&#xb9;" horiz-adv-x="217" 
d="M154 357h-84v260h-35v49l119 18v-327z" />
    <glyph glyph-name="threequarters" unicode="&#xbe;" horiz-adv-x="708" 
d="M652 71h-60v-71h-84v71h-145v41l155 210h74v-193h60v-58zM569 598l-383 -616l-40 20l384 616zM292 382c0 -69 -56 -111 -128 -111c-45 0 -82 15 -105 34v65c27 -25 60 -40 92 -40c34 0 57 20 57 54c0 30 -18 48 -47 48c-18 0 -35 -10 -43 -18l-30 34l96 88h-124v64h228
v-39l-85 -78c49 -7 89 -43 89 -101zM508 129v101l-76 -101h76z" />
    <glyph glyph-name="threesuperior" unicode="&#xb3;" horiz-adv-x="305" 
d="M269 459c0 -69 -56 -111 -128 -111c-45 0 -81 15 -104 34v65c27 -25 59 -40 91 -40c35 0 57 20 57 54c0 30 -18 48 -47 48c-18 0 -35 -10 -43 -18l-29 34l95 88h-123v64h227v-39l-85 -78c49 -7 89 -43 89 -101z" />
    <glyph glyph-name="twosuperior" unicode="&#xb2;" horiz-adv-x="291" 
d="M255 357h-229v39l75 78c31 32 61 64 61 103c0 34 -25 46 -45 46c-25 0 -51 -10 -83 -36v66c22 17 65 33 101 33c64 0 113 -38 113 -99c0 -54 -36 -93 -66 -120l-53 -46h126v-64z" />
    <glyph glyph-name="brokenbar" unicode="&#xa6;" horiz-adv-x="241" 
d="M147 349h-53v337h53v-337zM147 -96h-53v337h53v-337z" />
    <glyph glyph-name="minus" unicode="&#x2212;" horiz-adv-x="454" 
d="M375 195h-295v67h295v-67z" />
    <glyph glyph-name="multiply" unicode="&#xd7;" horiz-adv-x="454" 
d="M387 116l-47 -48l-112 113l-113 -113l-48 48l113 112l-112 112l48 48l111 -112l112 112l48 -49l-112 -111z" />
    <glyph glyph-name="space" unicode=" " horiz-adv-x="173" 
 />
    <glyph glyph-name="exclam" unicode="!" horiz-adv-x="265" 
d="M206 600l-40 -422h-67l-40 422h147zM188 0h-111v112h111v-112z" />
    <glyph glyph-name="quotedbl" unicode="&#x22;" horiz-adv-x="414" 
d="M358 600l-43 -233h-38l-42 233h123zM179 600l-43 -233h-38l-43 233h124z" />
    <glyph glyph-name="numbersign" unicode="#" horiz-adv-x="449" 
d="M429 473l-12 -65h-72l-21 -121h74l-12 -65h-73l-22 -128h-62l22 128h-97l-22 -128h-62l22 128h-73l12 65h72l20 121h-73l12 65h72l22 127h62l-21 -127h96l22 127h62l-21 -127h73zM282 408h-96l-21 -121h97z" />
    <glyph glyph-name="dollar" unicode="$" horiz-adv-x="486" 
d="M451 181c0 -117 -85 -172 -182 -181v-86h-47v85c-88 5 -158 41 -191 71l24 91c32 -28 95 -68 167 -75v176c-127 35 -177 93 -177 177c0 91 68 155 177 162v82h47v-82c63 -5 122 -30 153 -54l-23 -82c-37 23 -84 42 -130 48v-145c125 -35 182 -91 182 -187zM222 381v133
c-46 -5 -72 -30 -72 -66c0 -28 19 -50 72 -67zM269 248v-161c45 7 77 37 77 81c0 37 -22 62 -77 80z" />
    <glyph glyph-name="percent" unicode="%" horiz-adv-x="684" 
d="M321 466c0 -85 -58 -150 -140 -150c-81 0 -139 65 -139 150c0 84 58 149 139 149c82 0 140 -65 140 -149zM241 466c0 62 -26 87 -60 87s-59 -25 -59 -87c0 -63 25 -88 59 -88s60 25 60 88zM642 138c0 -85 -58 -150 -140 -150c-81 0 -139 65 -139 150c0 84 58 149 139 149
c82 0 140 -65 140 -149zM562 138c0 62 -26 87 -60 87s-59 -25 -59 -87c0 -63 25 -88 59 -88s60 25 60 88zM553 598l-384 -616l-39 20l383 616z" />
    <glyph glyph-name="ampersand" unicode="&#x26;" horiz-adv-x="664" 
d="M668 54c-34 -52 -84 -70 -121 -70c-47 0 -87 9 -138 47c-34 -28 -81 -47 -143 -47c-115 0 -221 58 -221 173c0 76 52 124 112 162c-30 53 -48 101 -48 145c0 88 82 153 183 153c94 0 161 -57 161 -130c0 -88 -89 -132 -168 -179c37 -51 80 -100 116 -135
c10 25 16 102 16 140h177v-72h-94c-2 -39 -10 -92 -33 -136c41 -37 67 -46 96 -46c22 0 49 13 71 39zM355 487c0 34 -28 56 -64 56c-54 0 -78 -40 -78 -78c0 -34 11 -64 29 -96c61 35 113 67 113 118zM346 87c-42 40 -98 100 -142 163c-27 -23 -46 -51 -46 -88
c0 -55 44 -101 116 -101c28 0 54 10 72 26z" />
    <glyph glyph-name="quotesingle" unicode="'" horiz-adv-x="235" 
d="M182 600l-45 -233h-39l-45 233h129z" />
    <glyph glyph-name="parenleft" unicode="(" horiz-adv-x="335" 
d="M310 -86l-31 -25c-127 104 -205 236 -205 406s78 302 204 406l32 -25c-56 -63 -147 -191 -147 -381s91 -318 147 -381z" />
    <glyph glyph-name="parenright" unicode=")" horiz-adv-x="335" 
d="M261 295c0 -170 -77 -302 -204 -406l-31 25c56 63 147 191 147 381s-91 318 -147 381l32 25c126 -104 203 -236 203 -406z" />
    <glyph glyph-name="asterisk" unicode="*" horiz-adv-x="407" 
d="M366 336c-13 -24 -44 -30 -67 -16c-27 16 -31 47 -81 84c8 -61 32 -79 32 -110c0 -28 -19 -52 -46 -52s-47 24 -47 52c0 30 25 49 33 110c-50 -36 -54 -68 -81 -83c-23 -14 -54 -8 -67 15c-14 23 -4 53 20 67c26 14 55 2 113 26c-58 25 -86 13 -112 28
c-24 14 -34 43 -21 66c13 24 44 30 67 16c27 -16 31 -47 81 -85c-7 62 -32 80 -32 112c0 27 19 51 46 51s47 -24 47 -51c0 -32 -25 -50 -33 -111c50 37 54 68 81 83c23 14 54 9 67 -15c14 -23 4 -53 -20 -67c-26 -15 -56 -2 -114 -27c58 -24 86 -11 113 -27
c24 -14 34 -43 21 -66z" />
    <glyph glyph-name="plus" unicode="+" horiz-adv-x="454" 
d="M406 195h-145v-146h-67v146h-146v67h146v145h67v-145h145v-67z" />
    <glyph glyph-name="comma" unicode="," horiz-adv-x="254" 
d="M187 18c0 -70 -40 -132 -102 -151l-20 30c41 23 61 63 61 103h-60v121h121v-103z" />
    <glyph glyph-name="hyphen" unicode="-" horiz-adv-x="297" 
d="M253 167h-209v76h209v-76z" />
    <glyph glyph-name="period" unicode="." horiz-adv-x="254" 
d="M187 0h-121v121h121v-121z" />
    <glyph glyph-name="slash" unicode="/" horiz-adv-x="339" 
d="M332 603l-282 -621l-43 15l282 622z" />
    <glyph glyph-name="zero" unicode="0" horiz-adv-x="582" 
d="M537 302c0 -200 -106 -319 -246 -319c-139 0 -246 119 -246 319c0 199 107 318 246 318c140 0 246 -119 246 -318zM416 302c0 148 -47 225 -125 225s-125 -77 -125 -225c0 -149 48 -226 125 -226c78 0 125 77 125 226z" />
    <glyph glyph-name="one" unicode="1" horiz-adv-x="310" 
d="M218 0h-116v506h-64v75l180 32v-613z" />
    <glyph glyph-name="two" unicode="2" horiz-adv-x="470" 
d="M427 0h-401v67l157 163c56 58 109 118 109 193c0 73 -48 99 -97 99s-102 -21 -154 -65v100c33 29 112 61 175 61c113 0 198 -67 198 -180c0 -104 -68 -176 -122 -227l-123 -116h258v-95z" />
    <glyph glyph-name="three" unicode="3" horiz-adv-x="495" 
d="M452 189c0 -129 -100 -206 -226 -206c-74 0 -143 27 -182 62v99c45 -42 99 -73 167 -73c74 0 125 46 125 120c0 64 -37 107 -105 107c-36 0 -64 -15 -84 -34l-49 55l190 186h-242v95h398v-56l-169 -166c99 -6 177 -72 177 -189z" />
    <glyph glyph-name="four" unicode="4" horiz-adv-x="558" 
d="M529 147h-109v-147h-116v147h-276v62l297 396h95v-373h109v-85zM304 232v218l-163 -218h163z" />
    <glyph glyph-name="five" unicode="5" horiz-adv-x="490" 
d="M451 195c0 -131 -99 -212 -225 -212c-74 0 -143 27 -182 62v99c42 -41 99 -73 167 -73c74 0 123 50 123 121c0 65 -39 110 -108 110c-50 0 -85 -20 -107 -64l-54 27v335h362v-95h-268v-148c21 19 57 33 101 33c110 0 191 -76 191 -195z" />
    <glyph glyph-name="six" unicode="6" horiz-adv-x="535" 
d="M493 188c0 -120 -95 -205 -217 -205c-96 0 -227 49 -227 284c0 214 91 351 265 351c63 0 119 -22 143 -40v-91c-36 23 -85 42 -132 42c-89 0 -155 -51 -159 -207c22 35 78 67 140 67c109 0 187 -80 187 -201zM275 306c-51 0 -108 -38 -108 -110c0 -85 49 -131 104 -131
c65 0 105 50 105 120c0 69 -34 121 -101 121z" />
    <glyph glyph-name="seven" unicode="7" horiz-adv-x="468" 
d="M440 545c-49 -72 -195 -356 -226 -545h-125c39 187 190 459 222 505h-293v95h422v-55z" />
    <glyph glyph-name="eight" unicode="8" horiz-adv-x="555" 
d="M511 164c0 -110 -104 -181 -233 -181s-234 71 -234 181c0 84 56 143 133 170c-64 27 -97 78 -97 137c0 88 94 149 198 149c103 0 197 -61 197 -149c0 -59 -33 -110 -96 -137c76 -27 132 -86 132 -170zM364 460c0 51 -35 84 -86 84c-52 0 -87 -33 -87 -84
c0 -44 36 -85 87 -85s86 41 86 85zM278 286c-66 0 -116 -45 -116 -111c0 -64 49 -111 116 -111s115 47 115 111c0 66 -49 111 -115 111z" />
    <glyph glyph-name="nine" unicode="9" horiz-adv-x="535" 
d="M486 336c0 -214 -91 -351 -265 -351c-63 0 -120 22 -143 40v91c36 -23 85 -42 132 -42c89 0 154 51 158 207c-22 -35 -77 -67 -139 -67c-109 0 -188 80 -188 201c0 120 96 205 218 205c96 0 227 -49 227 -284zM368 407c0 85 -49 131 -104 131c-65 0 -105 -50 -105 -120
c0 -69 34 -121 101 -121c51 0 108 38 108 110z" />
    <glyph glyph-name="colon" unicode=":" horiz-adv-x="254" 
d="M184 217h-115v116h115v-116zM184 0h-115v115h115v-115z" />
    <glyph glyph-name="semicolon" unicode=";" horiz-adv-x="254" 
d="M184 217h-115v116h115v-116zM184 18c0 -70 -35 -131 -97 -150l-19 31c41 22 56 61 56 101h-55v115h115v-97z" />
    <glyph glyph-name="less" unicode="&#x3c;" horiz-adv-x="454" 
d="M402 63l-34 -50l-314 217l314 218l34 -50l-233 -168z" />
    <glyph glyph-name="equal" unicode="=" horiz-adv-x="454" 
d="M373 264h-292v67h292v-67zM373 126h-292v67h292v-67z" />
    <glyph glyph-name="greater" unicode="&#x3e;" horiz-adv-x="454" 
d="M87 448l314 -218l-314 -217l-35 50l234 167l-234 168z" />
    <glyph glyph-name="question" unicode="?" horiz-adv-x="444" 
d="M231 0h-112v112h112v-112zM416 460c0 -94 -70 -146 -165 -191l-32 -15v-76h-88v126l46 22c95 45 118 81 118 126c0 52 -42 76 -96 76c-56 0 -130 -33 -176 -76v101c41 36 119 64 190 64c106 0 203 -49 203 -157z" />
    <glyph glyph-name="at" unicode="@" horiz-adv-x="706" 
d="M674 243c0 -134 -104 -248 -193 -248c-45 0 -63 23 -72 48c-23 -29 -54 -51 -96 -51c-86 0 -128 84 -110 187c18 101 102 184 190 184c27 0 43 -5 64 -17h69l-44 -250c-7 -39 0 -55 26 -55c49 0 115 83 115 200c0 132 -109 213 -228 213c-159 0 -287 -137 -287 -295
c0 -164 118 -265 261 -265c80 0 149 23 215 64l16 -31c-79 -57 -164 -77 -239 -77c-183 0 -327 132 -327 306c0 193 160 351 356 351c158 0 284 -105 284 -264zM444 295c-10 9 -22 18 -50 18c-54 0 -96 -54 -110 -136c-13 -78 0 -129 52 -129c34 0 71 34 80 85z" />
    <glyph glyph-name="A" unicode="A" horiz-adv-x="622" 
d="M613 0h-122l-61 148h-243l-61 -148h-118l255 600h95zM397 233l-88 218l-89 -218h177z" />
    <glyph glyph-name="B" unicode="B" horiz-adv-x="543" 
d="M512 176c0 -97 -59 -176 -203 -176h-243v600h233c129 0 181 -71 181 -157c0 -46 -30 -94 -64 -118c59 -26 96 -86 96 -149zM394 180c0 54 -30 94 -106 94h-100v-189h100c76 0 106 41 106 95zM188 515v-156h91c61 0 86 34 86 78s-25 78 -86 78h-91z" />
    <glyph glyph-name="C" unicode="C" horiz-adv-x="611" 
d="M568 48c-50 -38 -130 -61 -209 -61c-173 0 -322 119 -322 313s149 313 322 313c79 0 159 -23 209 -61v-111c-48 42 -113 74 -196 74c-119 0 -207 -80 -207 -215c0 -134 88 -215 207 -215c83 0 148 32 196 74v-111z" />
    <glyph glyph-name="D" unicode="D" horiz-adv-x="655" 
d="M618 300c0 -165 -101 -300 -341 -300h-211v600h211c240 0 341 -135 341 -300zM493 300c0 120 -58 202 -222 202h-83v-404h83c164 0 222 82 222 202z" />
    <glyph glyph-name="E" unicode="E" horiz-adv-x="505" 
d="M457 0h-391v600h391v-95h-269v-141h219v-95h-219v-174h269v-95z" />
    <glyph glyph-name="F" unicode="F" horiz-adv-x="462" 
d="M450 505h-262v-145h212v-94h-212v-266h-122v600h384v-95z" />
    <glyph glyph-name="G" unicode="G" horiz-adv-x="668" 
d="M602 42c-34 -14 -128 -59 -246 -59c-173 0 -319 123 -319 317s152 313 327 313c79 0 163 -23 213 -61v-111c-50 42 -112 74 -201 74c-125 0 -212 -82 -212 -220c0 -135 85 -220 205 -220c46 0 85 9 116 25v117h-106v90h223v-265z" />
    <glyph glyph-name="H" unicode="H" horiz-adv-x="659" 
d="M593 0h-122v265h-283v-265h-122v600h122v-232h283v232h122v-600z" />
    <glyph glyph-name="I" unicode="I" horiz-adv-x="254" 
d="M188 0h-122v600h122v-600z" />
    <glyph glyph-name="J" unicode="J" horiz-adv-x="254" 
d="M188 -41c0 -90 -48 -158 -147 -158c-48 0 -82 19 -97 33v77c13 -12 44 -26 64 -26c41 0 58 19 58 86v629h122v-641z" />
    <glyph glyph-name="K" unicode="K" horiz-adv-x="595" 
d="M604 0h-150l-266 283v-283h-122v600h122v-274l243 274h133l-259 -286z" />
    <glyph glyph-name="L" unicode="L" horiz-adv-x="469" 
d="M457 0h-391v600h122v-505h269v-95z" />
    <glyph glyph-name="M" unicode="M" horiz-adv-x="784" 
d="M717 0h-111v368c0 14 3 53 4 57l-22 -57l-161 -368h-75l-161 368c-6 14 -19 51 -21 57c0 -3 3 -43 3 -57v-368h-107v600h130l198 -439l197 439h126v-600z" />
    <glyph glyph-name="N" unicode="N" horiz-adv-x="641" 
d="M574 0h-85l-314 396v-396h-109v600h85l314 -396v396h109v-600z" />
    <glyph glyph-name="O" unicode="O" horiz-adv-x="726" 
d="M688 300c0 -184 -141 -317 -324 -317c-184 0 -327 133 -327 317s143 317 327 317c183 0 324 -133 324 -317zM560 300c0 130 -78 220 -196 220c-120 0 -199 -90 -199 -220s79 -220 199 -220c118 0 196 90 196 220z" />
    <glyph glyph-name="P" unicode="P" horiz-adv-x="516" 
d="M502 409c0 -104 -64 -191 -208 -191h-106v-218h-122v600h228c144 0 208 -88 208 -191zM381 409c0 56 -28 104 -107 104h-86v-208h86c79 0 107 47 107 104z" />
    <glyph glyph-name="Q" unicode="Q" horiz-adv-x="726" 
d="M688 300c0 -144 -87 -258 -214 -297l27 -49c29 -53 59 -69 100 -69c12 0 23 1 35 5v-78c-19 -6 -44 -11 -65 -11c-72 0 -133 29 -180 119l-33 63c-181 3 -321 135 -321 317c0 184 143 317 327 317c183 0 324 -133 324 -317zM560 300c0 130 -78 220 -196 220
c-120 0 -199 -90 -199 -220s79 -220 199 -220c118 0 196 90 196 220z" />
    <glyph glyph-name="R" unicode="R" horiz-adv-x="580" 
d="M385 252l178 -252h-134l-166 239h-75v-239h-122v600h236c142 0 203 -84 203 -181c0 -81 -43 -145 -120 -167zM188 513v-188h94c76 0 103 40 103 93c0 54 -27 95 -103 95h-94z" />
    <glyph glyph-name="S" unicode="S" horiz-adv-x="497" 
d="M462 173c0 -129 -106 -185 -219 -185c-100 0 -172 39 -213 75l28 96c40 -38 103 -81 185 -81c60 0 106 30 106 83c0 50 -28 76 -126 100c-126 31 -176 98 -176 184c0 98 78 169 207 169c74 0 140 -28 180 -59l-26 -85c-42 28 -102 52 -155 52c-59 0 -94 -26 -94 -69
c0 -35 21 -62 103 -82c140 -35 200 -94 200 -198z" />
    <glyph glyph-name="T" unicode="T" horiz-adv-x="549" 
d="M538 505h-203v-505h-122v505h-203v95h528v-95z" />
    <glyph glyph-name="U" unicode="U" horiz-adv-x="684" 
d="M617 277c0 -203 -117 -294 -275 -294s-276 91 -276 294v323h124v-319c0 -130 56 -193 154 -193s154 63 154 193v319h119v-323z" />
    <glyph glyph-name="V" unicode="V" horiz-adv-x="619" 
d="M610 600l-255 -600h-92l-255 600h125l179 -431l177 431h121z" />
    <glyph glyph-name="W" unicode="W" horiz-adv-x="869" 
d="M860 600l-205 -600h-89l-119 359c-5 13 -12 43 -12 46c-1 -1 -9 -34 -13 -46l-119 -359h-89l-206 600h121l121 -377c4 -13 11 -52 12 -56l15 56l116 377h87l117 -377c4 -14 14 -56 14 -56s7 42 12 56l120 377h117z" />
    <glyph glyph-name="X" unicode="X" horiz-adv-x="590" 
d="M592 0h-139l-159 228l-161 -228h-135l222 307l-210 293h139l147 -212l149 212h135l-210 -292z" />
    <glyph glyph-name="Y" unicode="Y" horiz-adv-x="596" 
d="M594 600l-235 -360v-240h-122v240l-235 360h133l165 -261l165 261h129z" />
    <glyph glyph-name="Z" unicode="Z" horiz-adv-x="518" 
d="M482 600v-59l-292 -446h290v-95h-444v59l292 446h-288v95h442z" />
    <glyph glyph-name="bracketleft" unicode="[" horiz-adv-x="331" 
d="M288 -88h-176v766h176v-51h-93v-664h93v-51z" />
    <glyph glyph-name="backslash" unicode="\" horiz-adv-x="339" 
d="M332 -3l-43 -15l-283 621l43 16z" />
    <glyph glyph-name="bracketright" unicode="]" horiz-adv-x="331" 
d="M220 -88h-176v51h92v664h-92v51h176v-766z" />
    <glyph glyph-name="asciicircum" unicode="^" horiz-adv-x="483" 
d="M462 302l-49 -33l-171 236l-170 -236l-50 33l220 316z" />
    <glyph glyph-name="underscore" unicode="_" horiz-adv-x="344" 
d="M352 -44h-360v44h360v-44z" />
    <glyph glyph-name="grave" unicode="`" horiz-adv-x="310" 
d="M248 433l-18 -30l-173 84l44 68z" />
    <glyph glyph-name="a" unicode="a" horiz-adv-x="490" 
d="M39 171c0 108 71 183 162 183c43 0 94 -16 123 -58l3 45h104v-341h-104l-3 45c-29 -42 -80 -58 -123 -58c-91 0 -162 74 -162 184zM151 171c0 -67 41 -102 86 -102c43 0 86 33 86 102s-43 101 -86 101c-45 0 -86 -35 -86 -101z" />
    <glyph glyph-name="b" unicode="b" horiz-adv-x="490" 
d="M451 171c0 -110 -71 -184 -162 -184c-43 0 -94 16 -123 58l-3 -45h-104v600h112v-297c31 37 76 51 118 51c91 0 162 -75 162 -183zM339 171c0 66 -41 101 -86 101c-43 0 -86 -32 -86 -101s43 -102 86 -102c45 0 86 35 86 102z" />
    <glyph glyph-name="c" unicode="c" horiz-adv-x="389" 
d="M350 25c-30 -22 -73 -36 -125 -36c-104 0 -185 74 -185 182c0 107 81 181 185 181c52 0 95 -14 125 -36v-84c-30 26 -64 37 -100 37c-53 0 -98 -34 -98 -98c0 -65 45 -99 98 -99c36 0 71 11 100 37v-84z" />
    <glyph glyph-name="d" unicode="d" horiz-adv-x="490" 
d="M39 171c0 108 71 183 162 183c42 0 87 -14 118 -51v297h112v-600h-104l-3 45c-29 -42 -80 -58 -123 -58c-91 0 -162 74 -162 184zM151 171c0 -67 41 -102 86 -102c43 0 86 33 86 102s-43 101 -86 101c-45 0 -86 -35 -86 -101z" />
    <glyph glyph-name="e" unicode="e" horiz-adv-x="425" 
d="M377 214c0 -16 -3 -37 -6 -49h-222c0 -51 26 -100 111 -100c38 0 85 18 110 40v-74c-30 -26 -83 -44 -144 -44c-113 0 -187 79 -187 186c0 109 83 181 179 181c89 0 159 -58 159 -140zM275 235c0 29 -19 52 -56 52c-30 0 -57 -18 -66 -66h121s1 6 1 14z" />
    <glyph glyph-name="f" unicode="f" horiz-adv-x="289" 
d="M272 269h-84v-269h-112v269h-61v72h61v129c0 100 58 143 147 143c15 0 38 -4 47 -7v-72c-4 1 -17 5 -27 5c-36 0 -55 -17 -55 -70v-128h84v-72z" />
    <glyph glyph-name="g" unicode="g" horiz-adv-x="491" 
d="M151 170c0 -66 41 -101 86 -101c43 0 86 32 86 101s-43 102 -86 102c-45 0 -86 -35 -86 -102zM431 4c0 -169 -115 -203 -207 -203c-52 0 -115 19 -154 43v84c51 -32 96 -44 150 -44c55 0 99 31 99 110v44c-31 -37 -76 -51 -118 -51c-91 0 -162 75 -162 183
c0 110 71 184 162 184c43 0 94 -16 123 -58l3 45h104v-337z" />
    <glyph glyph-name="h" unicode="h" horiz-adv-x="483" 
d="M425 0h-112v187c0 55 -20 78 -60 78c-41 0 -82 -38 -82 -83v-182h-112v600h112v-313c20 37 78 67 125 67c92 0 129 -64 129 -149v-205z" />
    <glyph glyph-name="i" unicode="i" horiz-adv-x="230" 
d="M171 0h-112v341h112v-341zM171 444h-112v106h112v-106z" />
    <glyph glyph-name="j" unicode="j" horiz-adv-x="230" 
d="M171 -67c0 -75 -40 -132 -122 -132c-40 0 -76 16 -85 27v67c12 -10 33 -18 49 -18c31 0 46 14 46 66v398h112v-408zM171 444h-112v106h112v-106z" />
    <glyph glyph-name="k" unicode="k" horiz-adv-x="439" 
d="M426 0h-127l-128 176v-176h-112v600h112v-405l128 146h120l-138 -152z" />
    <glyph glyph-name="l" unicode="l" horiz-adv-x="230" 
d="M171 0h-112v600h112v-600z" />
    <glyph glyph-name="m" unicode="m" horiz-adv-x="710" 
d="M652 0h-112v191c0 50 -15 74 -54 74c-38 0 -75 -33 -75 -83v-182h-112v191c0 50 -14 74 -54 74c-38 0 -74 -33 -74 -83v-182h-112v341h102l6 -59c21 43 73 72 122 72c66 0 100 -30 114 -78c22 43 69 78 127 78c92 0 122 -64 122 -149v-205z" />
    <glyph glyph-name="n" unicode="n" horiz-adv-x="483" 
d="M425 0h-112v187c0 55 -20 78 -60 78c-41 0 -82 -38 -82 -83v-182h-112v341h102l6 -60c21 43 80 73 129 73c92 0 129 -64 129 -149v-205z" />
    <glyph glyph-name="o" unicode="o" horiz-adv-x="472" 
d="M437 171c0 -106 -90 -186 -201 -186c-112 0 -201 80 -201 186s89 185 201 185c111 0 201 -79 201 -185zM325 171c0 62 -35 102 -89 102c-53 0 -89 -40 -89 -102c0 -63 36 -103 89 -103c54 0 89 40 89 103z" />
    <glyph glyph-name="p" unicode="p" horiz-adv-x="490" 
d="M451 170c0 -108 -71 -183 -162 -183c-42 0 -87 14 -118 51v-233h-112v536h104l3 -45c29 42 80 58 123 58c91 0 162 -74 162 -184zM339 170c0 67 -41 102 -86 102c-43 0 -86 -33 -86 -102s43 -101 86 -101c45 0 86 35 86 101z" />
    <glyph glyph-name="q" unicode="q" horiz-adv-x="490" 
d="M39 170c0 110 71 184 162 184c43 0 94 -16 123 -58l3 45h104v-536h-112v233c-31 -37 -76 -51 -118 -51c-91 0 -162 75 -162 183zM151 170c0 -66 41 -101 86 -101c43 0 86 32 86 101s-43 102 -86 102c-45 0 -86 -35 -86 -102z" />
    <glyph glyph-name="r" unicode="r" horiz-adv-x="313" 
d="M292 246c-61 18 -121 -12 -121 -70v-176h-112v341h102l6 -61c22 41 67 74 125 74v-108z" />
    <glyph glyph-name="s" unicode="s" horiz-adv-x="354" 
d="M318 110c0 -74 -48 -123 -144 -123c-68 0 -117 26 -142 41l18 74c29 -18 70 -41 123 -41c32 0 49 10 49 32c0 20 -17 29 -57 36c-91 17 -121 64 -121 115c0 55 38 110 137 110c56 0 102 -23 122 -34l-17 -70c-34 19 -69 31 -103 31c-30 0 -43 -10 -43 -27
c0 -18 16 -25 46 -31c98 -19 132 -67 132 -113z" />
    <glyph glyph-name="t" unicode="t" horiz-adv-x="302" 
d="M273 269h-66v-269h-112v269h-65v72h65v115h112v-115h66v-72z" />
    <glyph glyph-name="u" unicode="u" horiz-adv-x="483" 
d="M58 341h112v-187c0 -55 20 -78 60 -78c41 0 82 38 82 83v182h112v-341h-102l-6 60c-21 -43 -80 -73 -129 -73c-92 0 -129 64 -129 149v205z" />
    <glyph glyph-name="v" unicode="v" horiz-adv-x="407" 
d="M399 341l-152 -343h-87l-152 343h108l88 -222l89 222h106z" />
    <glyph glyph-name="w" unicode="w" horiz-adv-x="627" 
d="M616 341l-144 -343h-82l-76 207l-77 -207h-81l-145 343h107l80 -212l77 212h84l77 -212l79 212h101z" />
    <glyph glyph-name="x" unicode="x" horiz-adv-x="425" 
d="M414 0h-121l-81 109l-83 -109h-118l141 173l-133 168h118l77 -103l78 103h114l-132 -166z" />
    <glyph glyph-name="y" unicode="y" horiz-adv-x="409" 
d="M401 341l-231 -536h-108l89 204l-143 332h108l89 -225l90 225h106z" />
    <glyph glyph-name="z" unicode="z" horiz-adv-x="380" 
d="M344 0h-314v41l166 223h-156v77h300v-41l-167 -223h171v-77z" />
    <glyph glyph-name="braceleft" unicode="{" horiz-adv-x="334" 
d="M289 -78l-24 -33c-87 50 -118 79 -118 220c0 143 -32 151 -90 171v32c58 20 90 28 90 171c0 140 31 170 118 220l24 -33c-55 -40 -55 -75 -55 -190c0 -145 -44 -167 -115 -184c71 -17 115 -39 115 -184c0 -115 0 -150 55 -190z" />
    <glyph glyph-name="bar" unicode="|" horiz-adv-x="241" 
d="M147 -96h-53v782h53v-782z" />
    <glyph glyph-name="braceright" unicode="}" horiz-adv-x="334" 
d="M277 280c-58 -20 -91 -28 -91 -171c0 -141 -30 -170 -117 -220l-24 33c54 40 54 75 54 190c0 145 45 167 116 184c-71 17 -116 39 -116 184c0 115 0 150 -54 190l24 33c87 -50 117 -80 117 -220c0 -143 33 -151 91 -171v-32z" />
    <glyph glyph-name="asciitilde" unicode="~" horiz-adv-x="445" 
d="M380 269c0 -92 -35 -131 -90 -131c-45 0 -98 55 -142 55c-24 0 -32 -14 -41 -51h-43c0 92 35 131 90 131c45 0 98 -55 142 -55c24 0 32 14 41 51h43z" />
    <glyph glyph-name="Adieresis" unicode="&#xc4;" horiz-adv-x="622" 
d="M613 0h-122l-61 148h-243l-61 -148h-118l255 600h95zM397 233l-88 218l-89 -218h177zM447 674h-90v90h90v-90zM266 674h-91v90h91v-90z" />
    <glyph glyph-name="Aring" unicode="&#xc5;" horiz-adv-x="622" 
d="M613 0h-122l-61 148h-243l-61 -148h-118l255 600h95zM397 233l-88 218l-89 -218h177zM408 765c0 -55 -43 -98 -99 -98s-99 43 -99 98c0 56 43 99 99 99s99 -43 99 -99zM360 765c0 29 -23 52 -51 52s-51 -23 -51 -52c0 -28 23 -50 51 -50s51 22 51 50z" />
    <glyph glyph-name="Ccedilla" unicode="&#xc7;" horiz-adv-x="611" 
d="M327 -12c-159 14 -290 130 -290 312c0 194 149 313 322 313c79 0 159 -23 209 -61v-111c-48 42 -113 74 -196 74c-119 0 -207 -80 -207 -215c0 -134 88 -215 207 -215c83 0 148 32 196 74v-111c-45 -34 -114 -56 -185 -60l-40 -40c42 -3 88 -29 88 -80
c0 -80 -87 -115 -180 -105v41c70 -4 113 16 113 59c0 37 -51 51 -99 35v27z" />
    <glyph glyph-name="Eacute" unicode="&#xc9;" horiz-adv-x="505" 
d="M457 0h-391v600h391v-95h-269v-141h219v-95h-219v-174h269v-95zM387 746l-173 -84l-18 30l147 122z" />
    <glyph glyph-name="Ntilde" unicode="&#xd1;" horiz-adv-x="641" 
d="M574 0h-85l-314 396v-396h-109v600h85l314 -396v396h109v-600zM453 779c0 -73 -31 -108 -76 -108c-43 0 -85 49 -121 49c-21 0 -27 -13 -30 -45h-44c0 73 31 108 76 108c43 0 85 -49 121 -49c22 0 27 13 31 45h43z" />
    <glyph glyph-name="Odieresis" unicode="&#xd6;" horiz-adv-x="726" 
d="M688 300c0 -184 -141 -317 -324 -317c-184 0 -327 133 -327 317s143 317 327 317c183 0 324 -133 324 -317zM560 300c0 130 -78 220 -196 220c-120 0 -199 -90 -199 -220s79 -220 199 -220c118 0 196 90 196 220zM496 674h-90v90h90v-90zM315 674h-91v90h91v-90z" />
    <glyph glyph-name="Udieresis" unicode="&#xdc;" horiz-adv-x="684" 
d="M617 277c0 -203 -117 -294 -275 -294s-276 91 -276 294v323h124v-319c0 -130 56 -193 154 -193s154 63 154 193v319h119v-323zM481 674h-90v90h90v-90zM300 674h-91v90h91v-90z" />
    <glyph glyph-name="aacute" unicode="&#xe1;" horiz-adv-x="490" 
d="M42 171c0 108 71 183 162 183c43 0 94 -16 123 -58l3 45h104v-341h-104l-3 45c-29 -42 -80 -58 -123 -58c-91 0 -162 74 -162 184zM154 171c0 -67 41 -102 86 -102c43 0 86 33 86 102s-43 101 -86 101c-45 0 -86 -35 -86 -101zM364 487l-173 -84l-18 30l147 122z" />
    <glyph glyph-name="agrave" unicode="&#xe0;" horiz-adv-x="490" 
d="M327 433l-18 -30l-173 84l44 68zM42 171c0 108 71 183 162 183c43 0 94 -16 123 -58l3 45h104v-341h-104l-3 45c-29 -42 -80 -58 -123 -58c-91 0 -162 74 -162 184zM154 171c0 -67 41 -102 86 -102c43 0 86 33 86 102s-43 101 -86 101c-45 0 -86 -35 -86 -101z" />
    <glyph glyph-name="acircumflex" unicode="&#xe2;" horiz-adv-x="490" 
d="M42 171c0 108 71 183 162 183c43 0 94 -16 123 -58l3 45h104v-341h-104l-3 45c-29 -42 -80 -58 -123 -58c-91 0 -162 74 -162 184zM154 171c0 -67 41 -102 86 -102c43 0 86 33 86 102s-43 101 -86 101c-45 0 -86 -35 -86 -101zM383 441l-33 -34l-98 76l-97 -76l-33 34
l130 121z" />
    <glyph glyph-name="adieresis" unicode="&#xe4;" horiz-adv-x="490" 
d="M42 171c0 108 71 183 162 183c43 0 94 -16 123 -58l3 45h104v-341h-104l-3 45c-29 -42 -80 -58 -123 -58c-91 0 -162 74 -162 184zM154 171c0 -67 41 -102 86 -102c43 0 86 33 86 102s-43 101 -86 101c-45 0 -86 -35 -86 -101zM390 415h-90v90h90v-90zM209 415h-91v90h91
v-90z" />
    <glyph glyph-name="atilde" unicode="&#xe3;" horiz-adv-x="490" 
d="M42 171c0 108 71 183 162 183c43 0 94 -16 123 -58l3 45h104v-341h-104l-3 45c-29 -42 -80 -58 -123 -58c-91 0 -162 74 -162 184zM154 171c0 -67 41 -102 86 -102c43 0 86 33 86 102s-43 101 -86 101c-45 0 -86 -35 -86 -101zM387 520c0 -73 -31 -108 -76 -108
c-43 0 -85 49 -121 49c-21 0 -27 -13 -30 -45h-44c0 73 31 108 76 108c43 0 85 -49 121 -49c22 0 27 13 31 45h43z" />
    <glyph glyph-name="aring" unicode="&#xe5;" horiz-adv-x="490" 
d="M42 171c0 108 71 183 162 183c43 0 94 -16 123 -58l3 45h104v-341h-104l-3 45c-29 -42 -80 -58 -123 -58c-91 0 -162 74 -162 184zM154 171c0 -67 41 -102 86 -102c43 0 86 33 86 102s-43 101 -86 101c-45 0 -86 -35 -86 -101zM351 506c0 -55 -43 -98 -99 -98
s-99 43 -99 98c0 56 43 99 99 99s99 -43 99 -99zM303 506c0 29 -23 52 -51 52s-51 -23 -51 -52c0 -28 23 -50 51 -50s51 22 51 50z" />
    <glyph glyph-name="ccedilla" unicode="&#xe7;" horiz-adv-x="389" 
d="M191 -8c-85 15 -148 84 -148 179c0 107 81 181 185 181c52 0 95 -14 125 -36v-84c-30 26 -64 37 -100 37c-53 0 -98 -34 -98 -98c0 -65 45 -99 98 -99c36 0 71 11 100 37v-84c-27 -20 -64 -33 -109 -36l-26 -26c42 -3 88 -29 88 -80c0 -80 -87 -115 -180 -105v41
c70 -4 113 16 113 59c0 37 -51 51 -99 35v27z" />
    <glyph glyph-name="eacute" unicode="&#xe9;" horiz-adv-x="425" 
d="M380 214c0 -16 -3 -37 -6 -49h-222c0 -51 26 -100 111 -100c38 0 85 18 110 40v-74c-30 -26 -83 -44 -144 -44c-113 0 -187 79 -187 186c0 109 83 181 179 181c89 0 159 -58 159 -140zM278 235c0 29 -19 52 -56 52c-30 0 -57 -18 -66 -66h121s1 6 1 14zM329 487l-173 -84
l-18 30l147 122z" />
    <glyph glyph-name="egrave" unicode="&#xe8;" horiz-adv-x="425" 
d="M307 433l-18 -30l-173 84l44 68zM380 214c0 -16 -3 -37 -6 -49h-222c0 -51 26 -100 111 -100c38 0 85 18 110 40v-74c-30 -26 -83 -44 -144 -44c-113 0 -187 79 -187 186c0 109 83 181 179 181c89 0 159 -58 159 -140zM278 235c0 29 -19 52 -56 52c-30 0 -57 -18 -66 -66
h121s1 6 1 14z" />
    <glyph glyph-name="ecircumflex" unicode="&#xea;" horiz-adv-x="425" 
d="M380 214c0 -16 -3 -37 -6 -49h-222c0 -51 26 -100 111 -100c38 0 85 18 110 40v-74c-30 -26 -83 -44 -144 -44c-113 0 -187 79 -187 186c0 109 83 181 179 181c89 0 159 -58 159 -140zM278 235c0 29 -19 52 -56 52c-30 0 -57 -18 -66 -66h121s1 6 1 14zM353 441l-33 -34
l-98 76l-97 -76l-33 34l130 121z" />
    <glyph glyph-name="edieresis" unicode="&#xeb;" horiz-adv-x="425" 
d="M380 214c0 -16 -3 -37 -6 -49h-222c0 -51 26 -100 111 -100c38 0 85 18 110 40v-74c-30 -26 -83 -44 -144 -44c-113 0 -187 79 -187 186c0 109 83 181 179 181c89 0 159 -58 159 -140zM278 235c0 29 -19 52 -56 52c-30 0 -57 -18 -66 -66h121s1 6 1 14zM360 415h-90v90
h90v-90zM179 415h-91v90h91v-90z" />
    <glyph glyph-name="iacute" unicode="&#xed;" horiz-adv-x="230" 
d="M222 487l-173 -84l-18 30l147 122zM171 0h-112v341h112v-341z" />
    <glyph glyph-name="igrave" unicode="&#xec;" horiz-adv-x="230" 
d="M198 433l-18 -30l-173 84l44 68zM171 0h-112v341h112v-341z" />
    <glyph glyph-name="icircumflex" unicode="&#xee;" horiz-adv-x="230" 
d="M171 0h-112v341h112v-341zM246 441l-33 -34l-98 76l-97 -76l-34 34l131 121z" />
    <glyph glyph-name="idieresis" unicode="&#xef;" horiz-adv-x="230" 
d="M252 415h-90v90h90v-90zM71 415h-91v90h91v-90zM171 0h-112v341h112v-341z" />
    <glyph glyph-name="ntilde" unicode="&#xf1;" horiz-adv-x="483" 
d="M428 0h-112v187c0 55 -20 78 -60 78c-41 0 -82 -38 -82 -83v-182h-112v341h102l6 -60c21 43 80 73 129 73c92 0 129 -64 129 -149v-205zM378 520c0 -73 -31 -108 -76 -108c-43 0 -85 49 -121 49c-21 0 -27 -13 -30 -45h-44c0 73 31 108 76 108c43 0 85 -49 121 -49
c22 0 27 13 31 45h43z" />
    <glyph glyph-name="oacute" unicode="&#xf3;" horiz-adv-x="472" 
d="M440 171c0 -106 -90 -186 -201 -186c-112 0 -201 80 -201 186s89 185 201 185c111 0 201 -79 201 -185zM328 171c0 62 -35 102 -89 102c-53 0 -89 -40 -89 -102c0 -63 36 -103 89 -103c54 0 89 40 89 103zM356 487l-173 -84l-18 30l147 122z" />
    <glyph glyph-name="ograve" unicode="&#xf2;" horiz-adv-x="472" 
d="M314 433l-18 -30l-173 84l44 68zM440 171c0 -106 -90 -186 -201 -186c-112 0 -201 80 -201 186s89 185 201 185c111 0 201 -79 201 -185zM328 171c0 62 -35 102 -89 102c-53 0 -89 -40 -89 -102c0 -63 36 -103 89 -103c54 0 89 40 89 103z" />
    <glyph glyph-name="ocircumflex" unicode="&#xf4;" horiz-adv-x="472" 
d="M440 171c0 -106 -90 -186 -201 -186c-112 0 -201 80 -201 186s89 185 201 185c111 0 201 -79 201 -185zM328 171c0 62 -35 102 -89 102c-53 0 -89 -40 -89 -102c0 -63 36 -103 89 -103c54 0 89 40 89 103zM370 441l-33 -34l-98 76l-97 -76l-33 34l130 121z" />
    <glyph glyph-name="odieresis" unicode="&#xf6;" horiz-adv-x="472" 
d="M440 171c0 -106 -90 -186 -201 -186c-112 0 -201 80 -201 186s89 185 201 185c111 0 201 -79 201 -185zM328 171c0 62 -35 102 -89 102c-53 0 -89 -40 -89 -102c0 -63 36 -103 89 -103c54 0 89 40 89 103zM377 415h-90v90h90v-90zM196 415h-91v90h91v-90z" />
    <glyph glyph-name="otilde" unicode="&#xf5;" horiz-adv-x="472" 
d="M440 171c0 -106 -90 -186 -201 -186c-112 0 -201 80 -201 186s89 185 201 185c111 0 201 -79 201 -185zM328 171c0 62 -35 102 -89 102c-53 0 -89 -40 -89 -102c0 -63 36 -103 89 -103c54 0 89 40 89 103zM372 520c0 -73 -31 -108 -76 -108c-43 0 -85 49 -121 49
c-21 0 -27 -13 -30 -45h-44c0 73 31 108 76 108c43 0 85 -49 121 -49c22 0 27 13 31 45h43z" />
    <glyph glyph-name="uacute" unicode="&#xfa;" horiz-adv-x="483" 
d="M61 341h112v-187c0 -55 20 -78 60 -78c41 0 82 38 82 83v182h112v-341h-102l-6 60c-21 -43 -80 -73 -129 -73c-92 0 -129 64 -129 149v205zM360 487l-173 -84l-18 30l147 122z" />
    <glyph glyph-name="ugrave" unicode="&#xf9;" horiz-adv-x="483" 
d="M308 433l-18 -30l-173 84l44 68zM61 341h112v-187c0 -55 20 -78 60 -78c41 0 82 38 82 83v182h112v-341h-102l-6 60c-21 -43 -80 -73 -129 -73c-92 0 -129 64 -129 149v205z" />
    <glyph glyph-name="ucircumflex" unicode="&#xfb;" horiz-adv-x="483" 
d="M61 341h112v-187c0 -55 20 -78 60 -78c41 0 82 38 82 83v182h112v-341h-102l-6 60c-21 -43 -80 -73 -129 -73c-92 0 -129 64 -129 149v205zM374 441l-33 -34l-98 76l-97 -76l-33 34l130 121z" />
    <glyph glyph-name="udieresis" unicode="&#xfc;" horiz-adv-x="483" 
d="M61 341h112v-187c0 -55 20 -78 60 -78c41 0 82 38 82 83v182h112v-341h-102l-6 60c-21 -43 -80 -73 -129 -73c-92 0 -129 64 -129 149v205zM381 415h-90v90h90v-90zM200 415h-91v90h91v-90z" />
    <glyph glyph-name="dagger" unicode="&#x2020;" horiz-adv-x="436" 
d="M407 328h-146v-523h-87v523h-146v76h146v195h87v-195h146v-76z" />
    <glyph glyph-name="degree" unicode="&#xb0;" horiz-adv-x="385" 
d="M341 461c0 -83 -67 -150 -150 -150c-82 0 -150 67 -150 150c0 82 68 150 150 150c83 0 150 -68 150 -150zM286 461c0 52 -42 95 -95 95c-52 0 -94 -43 -94 -95s42 -95 94 -95c53 0 95 43 95 95z" />
    <glyph glyph-name="cent" unicode="&#xa2;" horiz-adv-x="435" 
d="M369 118c-25 -18 -53 -29 -94 -33v-168h-47v166c-95 7 -175 82 -175 184s80 176 175 183v167h47v-169c41 -4 69 -15 94 -33v-85c-26 23 -60 34 -94 37v-201c34 3 69 15 94 37v-85zM228 171v191c-40 -10 -67 -44 -67 -95c0 -47 27 -84 67 -96z" />
    <glyph glyph-name="sterling" unicode="&#xa3;" horiz-adv-x="535" 
d="M482 0h-453v91c75 0 93 16 93 106v75h-79v71h79v32c0 176 85 242 204 242c50 0 102 -19 132 -40v-94c-35 27 -80 45 -122 45c-63 0 -103 -28 -103 -152v-33h151v-71h-151v-25c0 -99 -28 -138 -57 -156h306v-91z" />
    <glyph glyph-name="section" unicode="&#xa7;" horiz-adv-x="449" 
d="M420 229c0 -69 -37 -115 -92 -140c51 -32 74 -75 74 -128c0 -84 -67 -152 -187 -152c-73 0 -133 31 -160 50l22 78c41 -27 89 -47 138 -47c57 0 87 25 87 64c0 35 -19 61 -88 78c-120 29 -184 83 -184 166c0 68 36 115 91 139c-51 32 -73 75 -73 128c0 85 66 152 187 152
c72 0 133 -31 159 -50l-21 -77c-41 26 -89 46 -139 46c-57 0 -87 -25 -87 -63c0 -36 19 -61 88 -78c121 -30 185 -84 185 -166zM328 208c0 51 -40 77 -126 97c-45 -8 -81 -43 -81 -87c0 -51 40 -76 126 -97c45 8 81 43 81 87z" />
    <glyph glyph-name="bullet" unicode="&#x2022;" horiz-adv-x="283" 
d="M142 333c49 0 88 -39 88 -88s-39 -89 -88 -89s-89 40 -89 89s40 88 89 88z" />
    <glyph glyph-name="paragraph" unicode="&#xb6;" horiz-adv-x="521" 
d="M479 537h-62v-728h-76v728h-83v-728h-76v453c-85 9 -151 81 -151 168c0 93 76 170 170 170h278v-63z" />
    <glyph glyph-name="germandbls" unicode="&#xdf;" horiz-adv-x="532" 
d="M504 117c0 -78 -53 -127 -153 -127c-47 0 -90 12 -129 28v75c44 -23 85 -33 116 -33c36 0 64 19 64 49c0 70 -171 66 -171 191c0 82 93 104 93 168c0 38 -22 67 -72 67c-53 0 -81 -45 -81 -100v-435h-112v435c0 112 82 178 193 178c108 0 173 -52 173 -133
c0 -98 -95 -112 -95 -170c0 -73 174 -75 174 -193z" />
    <glyph glyph-name="registered" unicode="&#xae;" horiz-adv-x="501" 
d="M482 386c0 -128 -104 -231 -232 -231c-127 0 -231 103 -231 231s104 231 231 231c128 0 232 -103 232 -231zM452 386c0 111 -91 201 -202 201s-201 -90 -201 -201s90 -201 201 -201s202 90 202 201zM390 251h-83l-64 106h-26v-106h-71v274h122c67 0 95 -40 95 -84
c0 -35 -18 -64 -51 -76zM251 479h-34v-76h34c28 0 41 13 41 37s-13 39 -41 39z" />
    <glyph glyph-name="copyright" unicode="&#xa9;" horiz-adv-x="685" 
d="M659 300c0 -175 -141 -317 -316 -317s-317 142 -317 317s142 317 317 317s316 -142 316 -317zM623 300c0 155 -125 280 -280 280s-280 -125 -280 -280s125 -280 280 -280s280 125 280 280zM489 139c-32 -24 -81 -39 -134 -39c-107 0 -205 76 -205 200s98 200 205 200
c53 0 102 -15 134 -39v-77c-31 26 -66 45 -121 45c-70 0 -125 -48 -125 -129c0 -80 55 -129 125 -129c55 0 91 19 121 45v-77z" />
    <glyph glyph-name="trademark" unicode="&#x2122;" horiz-adv-x="827" 
d="M768 267h-78v182c0 8 1 34 1 36c-1 -3 -8 -28 -11 -36l-73 -182h-57l-72 182c-4 8 -11 31 -12 36c0 -2 1 -28 1 -36v-182h-76v333h98l92 -227l90 227h97v-333zM330 534h-108v-267h-89v267h-107v66h304v-66z" />
    <glyph glyph-name="acute" unicode="&#xb4;" horiz-adv-x="310" 
d="M250 487l-173 -84l-18 30l147 122z" />
    <glyph glyph-name="dieresis" unicode="&#xa8;" horiz-adv-x="310" 
d="M291 415h-90v90h90v-90zM110 415h-91v90h91v-90z" />
    <glyph glyph-name="notequal" unicode="&#x2260;" horiz-adv-x="454" 
d="M373 127h-188l-65 -95l-35 22l49 73h-53v67h97l48 70h-145v68h189l64 95l35 -23l-49 -72h53v-68h-97l-47 -70h144v-67z" />
    <glyph glyph-name="AE" unicode="&#xc6;" horiz-adv-x="845" 
d="M406 232v282l-153 -282h153zM797 600v-95h-269v-141h219v-95h-219v-174h269v-95h-391v145h-200l-80 -145h-118l341 600h448z" />
    <glyph glyph-name="Oslash" unicode="&#xd8;" horiz-adv-x="726" 
d="M490 475l-220 -373c27 -14 59 -22 94 -22c118 0 196 90 196 220c0 74 -26 136 -70 175zM236 125l221 373c-27 14 -58 22 -93 22c-120 0 -199 -90 -199 -220c0 -75 26 -136 71 -175zM182 33c-88 56 -145 151 -145 267c0 184 143 317 327 317c53 0 102 -11 145 -31l34 57
l35 -20l-34 -56c87 -55 144 -151 144 -267c0 -184 -141 -317 -324 -317c-53 0 -102 11 -146 31l-34 -57l-36 20z" />
    <glyph glyph-name="infinity" unicode="&#x221e;" horiz-adv-x="698" 
d="M661 228c0 -75 -56 -136 -141 -136c-53 0 -126 51 -170 94c-46 -43 -119 -94 -172 -94c-86 0 -141 61 -141 136c0 76 55 137 141 137c53 0 126 -51 172 -95c44 44 117 95 170 95c85 0 141 -61 141 -137zM523 301c-36 0 -94 -43 -128 -73c33 -28 92 -73 128 -73
c41 0 71 35 71 73c0 40 -30 73 -71 73zM175 301c-41 0 -71 -33 -71 -73c0 -38 30 -73 71 -73c38 0 91 45 121 73c-32 30 -83 73 -121 73z" />
    <glyph glyph-name="plusminus" unicode="&#xb1;" horiz-adv-x="410" 
d="M386 256h-148v-148h-66v148h-148v66h148v148h66v-148h148v-66zM386 0h-362v58h362v-58z" />
    <glyph glyph-name="lessequal" unicode="&#x2264;" horiz-adv-x="423" 
d="M372 170l-17 -62l-317 165l317 164l17 -60l-195 -104zM392 0h-361v58h361v-58z" />
    <glyph glyph-name="greaterequal" unicode="&#x2265;" horiz-adv-x="423" 
d="M385 273l-317 -165l-17 62l195 103l-195 104l17 60zM392 0h-361v58h361v-58z" />
    <glyph glyph-name="yen" unicode="&#xa5;" horiz-adv-x="595" 
d="M358 236v-58h119v-50h-119v-128h-121v128h-119v50h119v58h-119v50h89l-205 314h133l165 -261l164 261h129l-205 -314h89v-50h-119z" />
    <glyph glyph-name="mu" unicode="&#xb5;" horiz-adv-x="483" 
d="M170 -12v-183h-112v536h112v-187c0 -55 20 -78 60 -78c41 0 82 38 82 83v182h112v-341h-102l-6 60c-21 -43 -80 -73 -129 -73c-6 0 -11 0 -17 1z" />
    <glyph glyph-name="partialdiff" unicode="&#x2202;" horiz-adv-x="534" 
d="M488 267c-24 -234 -160 -284 -256 -284c-122 0 -208 90 -196 210c12 115 98 194 214 194c51 0 108 -26 128 -54c8 144 -48 198 -138 198c-47 0 -98 -19 -136 -44l10 92c25 17 84 39 146 39c174 0 250 -137 228 -351zM371 247c-16 33 -54 59 -109 59
c-63 0 -101 -43 -110 -118c-9 -73 27 -125 92 -125c51 0 113 35 127 184z" />
    <glyph glyph-name="summation" unicode="&#x2211;" horiz-adv-x="550" 
d="M543 -170h-524v38l238 353l-240 342v37h511v-86h-349l199 -285l-210 -313h375v-86z" />
    <glyph glyph-name="product" unicode="&#x220f;" horiz-adv-x="646" 
d="M616 508h-60v-508h-114v508h-238v-508h-114v508h-60v92h586v-92z" />
    <glyph glyph-name="pi" unicode="&#x3c0;" horiz-adv-x="530" 
d="M502 245h-55v-245h-115v245h-134v-245h-115v245h-55v88h474v-88z" />
    <glyph glyph-name="integral" unicode="&#x222b;" horiz-adv-x="277" 
d="M292 570c-10 2 -28 6 -41 6c-49 0 -69 -21 -69 -96v-529c0 -85 -41 -150 -135 -150c-45 0 -82 19 -93 31v72c15 -12 42 -24 62 -24c39 0 56 19 56 83v513c0 126 58 176 161 176c19 0 47 -5 59 -9v-73z" />
    <glyph glyph-name="ordfeminine" unicode="&#xaa;" horiz-adv-x="441" 
d="M35 448c0 97 64 165 146 165c39 0 84 -15 111 -53l2 41h94v-307h-94l-2 40c-27 -37 -72 -52 -111 -52c-82 0 -146 67 -146 166zM136 448c0 -60 37 -92 77 -92c39 0 78 30 78 92s-39 91 -78 91c-40 0 -77 -32 -77 -91z" />
    <glyph glyph-name="ordmasculine" unicode="&#xba;" horiz-adv-x="425" 
d="M393 448c0 -96 -81 -167 -181 -167s-181 71 -181 167c0 95 81 166 181 166s181 -71 181 -166zM292 448c0 58 -31 94 -80 94c-47 0 -80 -36 -80 -94c0 -59 33 -96 80 -96c49 0 80 37 80 96z" />
    <glyph glyph-name="Omega" unicode="&#x3a9;" horiz-adv-x="557" 
d="M519 382c0 -87 -52 -165 -121 -201v-99h106v-82h-182v234c67 22 102 85 102 145c0 71 -47 148 -145 148c-99 0 -146 -77 -146 -148c0 -60 33 -122 102 -145v-234h-182v82h106v98c-68 36 -121 114 -121 202c0 117 99 221 241 221c141 0 240 -104 240 -221z" />
    <glyph glyph-name="ae" unicode="&#xe6;" horiz-adv-x="631" 
d="M583 214c0 -16 -3 -38 -6 -49h-222c-2 -46 21 -100 111 -100c38 0 85 18 110 40v-73c-31 -26 -82 -45 -144 -45c-92 0 -139 49 -158 80c-51 -60 -102 -76 -146 -76c-52 0 -93 37 -93 90c0 82 93 127 211 137v11c0 40 -19 52 -59 52c-37 0 -92 -21 -128 -45v78
c29 18 104 40 152 40c46 0 84 -8 110 -33c28 21 65 33 103 33c90 0 159 -59 159 -140zM481 235c0 29 -20 52 -56 52c-30 0 -57 -18 -66 -66h121s1 6 1 14zM255 109c-6 17 -10 33 -10 52c-71 -10 -110 -31 -110 -66c0 -22 18 -33 40 -33c16 0 47 9 80 47z" />
    <glyph glyph-name="oslash" unicode="&#xf8;" horiz-adv-x="472" 
d="M305 247l-111 -177c13 -7 27 -10 42 -10c54 0 93 41 93 111c0 32 -10 57 -24 76zM167 94l111 177c-13 7 -27 10 -42 10c-54 0 -93 -40 -93 -110c0 -32 11 -58 24 -77zM120 18c-52 33 -85 89 -85 153c0 106 89 185 201 185c30 0 59 -6 84 -16l26 41l31 -19l-25 -39
c52 -33 85 -88 85 -152c0 -106 -90 -186 -201 -186c-30 0 -59 6 -84 17l-26 -42l-31 19z" />
    <glyph glyph-name="questiondown" unicode="&#xbf;" horiz-adv-x="444" 
d="M213 432h112v-112h-112v112zM28 -28c0 94 68 146 165 191l32 15v76h88v-126l-46 -22c-95 -45 -118 -81 -118 -126c0 -52 42 -76 96 -76c56 0 130 33 176 76v-101c-41 -36 -119 -64 -190 -64c-106 0 -203 49 -203 157z" />
    <glyph glyph-name="exclamdown" unicode="&#xa1;" horiz-adv-x="255" 
d="M183 320h-111v112h111v-112zM201 -168h-147l40 422h68z" />
    <glyph glyph-name="logicalnot" unicode="&#xac;" horiz-adv-x="562" 
d="M453 85h-67v112h-305v67h372v-179z" />
    <glyph glyph-name="radical" unicode="&#x221a;" horiz-adv-x="459" 
d="M466 741l-284 -763h-19l-126 300l72 33l79 -197l233 627h45z" />
    <glyph glyph-name="florin" unicode="&#x192;" horiz-adv-x="295" 
d="M151 -69c-7 -74 -52 -131 -134 -131c-40 0 -73 16 -82 26l6 67c12 -10 31 -18 47 -18c32 0 47 14 52 66l28 320h-61l7 72h61l11 137c8 100 71 143 160 143c15 0 38 -4 46 -7l-6 -72c-4 1 -16 5 -26 5c-36 0 -58 -17 -62 -70l-11 -136h84l-7 -72h-84z" />
    <glyph glyph-name="approxequal" unicode="&#x2248;" horiz-adv-x="454" 
d="M370 281c0 0 -35 -33 -74 -33c-45 0 -97 33 -138 33c-38 0 -75 -33 -75 -33v67s36 33 75 33c45 0 97 -33 138 -33c38 0 74 33 74 33v-67zM370 143c0 0 -35 -33 -74 -33c-45 0 -97 33 -138 33c-38 0 -75 -33 -75 -33v68s36 33 75 33c45 0 97 -33 138 -33c38 0 74 33 74 33
v-68z" />
    <glyph glyph-name="Delta" unicode="&#x394;" horiz-adv-x="565" 
d="M542 0h-519l238 612h53zM411 78l-130 358l-137 -358h267z" />
    <glyph glyph-name="guillemotleft" unicode="&#xab;" horiz-adv-x="435" 
d="M407 91l-27 -31l-181 145l181 144l27 -32l-116 -113zM279 54l-27 -32l-224 183l224 181l27 -31l-151 -151z" />
    <glyph glyph-name="guillemotright" unicode="&#xbb;" horiz-adv-x="436" 
d="M408 205l-224 -183l-27 32l151 150l-151 151l27 31zM237 205l-182 -145l-27 31l116 113l-116 113l27 32z" />
    <glyph glyph-name="ellipsis" unicode="&#x2026;" horiz-adv-x="738" 
d="M672 0h-115v115h115v-115zM180 0h-115v115h115v-115zM426 0h-115v115h115v-115z" />
    <glyph glyph-name="Agrave" unicode="&#xc0;" horiz-adv-x="622" 
d="M613 0h-122l-61 148h-243l-61 -148h-118l255 600h95zM397 233l-88 218l-89 -218h177zM364 692l-18 -30l-173 84l44 68z" />
    <glyph glyph-name="Atilde" unicode="&#xc3;" horiz-adv-x="622" 
d="M613 0h-122l-61 148h-243l-61 -148h-118l255 600h95zM397 233l-88 218l-89 -218h177zM444 779c0 -73 -31 -108 -76 -108c-43 0 -85 49 -121 49c-21 0 -27 -13 -30 -45h-44c0 73 31 108 76 108c43 0 85 -49 121 -49c22 0 27 13 31 45h43z" />
    <glyph glyph-name="Otilde" unicode="&#xd5;" horiz-adv-x="726" 
d="M688 300c0 -184 -141 -317 -324 -317c-184 0 -327 133 -327 317s143 317 327 317c183 0 324 -133 324 -317zM560 300c0 130 -78 220 -196 220c-120 0 -199 -90 -199 -220s79 -220 199 -220c118 0 196 90 196 220zM493 779c0 -73 -31 -108 -76 -108c-43 0 -85 49 -121 49
c-21 0 -27 -13 -30 -45h-44c0 73 31 108 76 108c43 0 85 -49 121 -49c22 0 27 13 31 45h43z" />
    <glyph glyph-name="OE" unicode="&#x152;" horiz-adv-x="907" 
d="M859 600v-95h-269v-141h219v-95h-219v-174h269v-95h-480c-240 0 -341 135 -341 300s101 300 341 300h480zM163 300c0 -120 58 -202 222 -202h83v404h-83c-164 0 -222 -82 -222 -202z" />
    <glyph glyph-name="oe" unicode="&#x153;" horiz-adv-x="708" 
d="M376 37c-35 -33 -85 -52 -140 -52c-112 0 -201 80 -201 186s89 185 201 185c55 0 104 -19 140 -51c33 31 77 49 125 49c89 0 159 -58 159 -140c0 -16 -3 -37 -6 -49h-222c0 -51 26 -100 111 -100c38 0 85 18 110 40v-74c-30 -26 -83 -44 -144 -44c-55 0 -100 18 -133 50z
M558 235c0 29 -19 52 -56 52c-30 0 -57 -18 -66 -66h121s1 6 1 14zM325 171c0 62 -35 102 -89 102c-53 0 -89 -40 -89 -102c0 -63 36 -103 89 -103c54 0 89 40 89 103z" />
    <glyph glyph-name="endash" unicode="&#x2013;" horiz-adv-x="404" 
d="M405 174h-406v62h406v-62z" />
    <glyph glyph-name="emdash" unicode="&#x2014;" horiz-adv-x="646" 
d="M647 174h-648v62h648v-62z" />
    <glyph glyph-name="quotedblleft" unicode="&#x201c;" horiz-adv-x="425" 
d="M247 460c0 70 34 131 97 150l18 -30c-41 -22 -56 -62 -56 -102h54v-113h-113v95zM65 460c0 70 34 131 97 150l17 -30c-39 -22 -55 -62 -55 -102h54v-113h-113v95z" />
    <glyph glyph-name="quotedblright" unicode="&#x201d;" horiz-adv-x="425" 
d="M359 505c0 -70 -34 -131 -97 -150l-17 30c39 22 55 62 55 102h-54v113h113v-95zM177 505c0 -70 -34 -131 -97 -150l-18 30c41 22 56 62 56 102h-54v113h113v-95z" />
    <glyph glyph-name="quoteleft" unicode="&#x2018;" horiz-adv-x="243" 
d="M163 609l18 -30c-40 -23 -55 -63 -55 -102h53v-113h-113v95c0 70 35 131 97 150z" />
    <glyph glyph-name="quoteright" unicode="&#x2019;" horiz-adv-x="243" 
d="M177 505c0 -70 -34 -131 -97 -150l-18 30c41 22 56 62 56 102h-54v113h113v-95z" />
    <glyph glyph-name="divide" unicode="&#xf7;" horiz-adv-x="454" 
d="M272 322h-90v91h90v-91zM406 196h-358v67h358v-67zM272 46h-90v90h90v-90z" />
    <glyph glyph-name="lozenge" unicode="&#x25ca;" horiz-adv-x="485" 
d="M446 295l-204 -344l-203 344l203 334zM380 296l-138 229l-138 -229l138 -240z" />
    <glyph glyph-name="ydieresis" unicode="&#xff;" horiz-adv-x="409" 
d="M404 341l-231 -536h-108l89 204l-143 332h108l89 -225l90 225h106zM346 414h-90v90h90v-90zM165 414h-91v90h91v-90z" />
    <glyph glyph-name="Ydieresis" unicode="&#x178;" horiz-adv-x="596" 
d="M594 600l-235 -360v-240h-122v240l-235 360h133l165 -261l165 261h129zM439 674h-90v90h90v-90zM258 674h-91v90h91v-90z" />
    <glyph glyph-name="fraction" unicode="&#x2044;" horiz-adv-x="137" 
d="M280 598l-383 -616l-40 20l384 616z" />
    <glyph glyph-name="Euro" unicode="&#x20ac;" horiz-adv-x="542" 
d="M498 28c-35 -25 -99 -42 -152 -42c-134 0 -226 84 -251 230h-62v51h56c-1 11 -1 23 -1 35c0 11 0 21 1 31h-56v51h62c23 148 116 233 251 233c53 0 111 -16 152 -42v-97c-40 34 -87 48 -139 48c-81 0 -129 -45 -144 -142h165v-51h-170c-1 -10 -1 -20 -1 -31
c0 -12 0 -24 1 -35h170v-51h-165c17 -95 64 -139 144 -139c51 0 98 16 139 48v-97z" />
    <glyph glyph-name="guilsinglleft" unicode="&#x2039;" horiz-adv-x="307" 
d="M279 54l-27 -32l-224 183l224 181l27 -31l-146 -151z" />
    <glyph glyph-name="guilsinglright" unicode="&#x203a;" horiz-adv-x="307" 
d="M279 205l-224 -183l-27 32l146 150l-146 151l27 31z" />
    <glyph glyph-name="daggerdbl" unicode="&#x2021;" horiz-adv-x="436" 
d="M407 0h-146v-195h-87v195h-146v76h146v252h-146v76h146v195h87v-195h146v-76h-146v-252h146v-76z" />
    <glyph glyph-name="periodcentered" unicode="&#xb7;" horiz-adv-x="254" 
d="M187 145h-121v121h121v-121z" />
    <glyph glyph-name="quotesinglbase" unicode="&#x201a;" horiz-adv-x="243" 
d="M177 18c0 -70 -34 -131 -97 -150l-18 31c41 22 56 61 56 101h-54v113h113v-95z" />
    <glyph glyph-name="quotedblbase" unicode="&#x201e;" horiz-adv-x="425" 
d="M359 18c0 -70 -34 -131 -97 -150l-17 30c39 22 55 62 55 102h-54v113h113v-95zM177 18c0 -70 -34 -131 -97 -150l-18 30c41 22 56 62 56 102h-54v113h113v-95z" />
    <glyph glyph-name="perthousand" unicode="&#x2030;" horiz-adv-x="1011" 
d="M969 138c0 -85 -58 -150 -140 -150c-81 0 -139 65 -139 150c0 84 58 149 139 149c82 0 140 -65 140 -149zM889 138c0 62 -26 87 -60 87s-59 -25 -59 -87c0 -63 25 -88 59 -88s60 25 60 88zM321 466c0 -85 -58 -150 -140 -150c-81 0 -139 65 -139 150c0 84 58 149 139 149
c82 0 140 -65 140 -149zM241 466c0 62 -26 87 -60 87s-59 -25 -59 -87c0 -63 25 -88 59 -88s60 25 60 88zM642 138c0 -85 -58 -150 -140 -150c-81 0 -139 65 -139 150c0 84 58 149 139 149c82 0 140 -65 140 -149zM562 138c0 62 -26 87 -60 87s-59 -25 -59 -87
c0 -63 25 -88 59 -88s60 25 60 88zM553 598l-384 -616l-39 20l383 616z" />
    <glyph glyph-name="Acircumflex" unicode="&#xc2;" horiz-adv-x="622" 
d="M613 0h-122l-61 148h-243l-61 -148h-118l255 600h95zM397 233l-88 218l-89 -218h177zM440 700l-33 -34l-98 76l-97 -76l-33 34l130 121z" />
    <glyph glyph-name="Ecircumflex" unicode="&#xca;" horiz-adv-x="505" 
d="M457 0h-391v600h391v-95h-269v-141h219v-95h-219v-174h269v-95zM390 700l-33 -34l-98 76l-97 -76l-33 34l130 121z" />
    <glyph glyph-name="Aacute" unicode="&#xc1;" horiz-adv-x="622" 
d="M613 0h-122l-61 148h-243l-61 -148h-118l255 600h95zM397 233l-88 218l-89 -218h177zM446 746l-173 -84l-18 30l147 122z" />
    <glyph glyph-name="Edieresis" unicode="&#xcb;" horiz-adv-x="505" 
d="M457 0h-391v600h391v-95h-269v-141h219v-95h-219v-174h269v-95zM407 674h-90v90h90v-90zM226 674h-91v90h91v-90z" />
    <glyph glyph-name="Egrave" unicode="&#xc8;" horiz-adv-x="505" 
d="M457 0h-391v600h391v-95h-269v-141h219v-95h-219v-174h269v-95zM334 692l-18 -30l-173 84l44 68z" />
    <glyph glyph-name="Iacute" unicode="&#xcd;" horiz-adv-x="254" 
d="M188 0h-122v600h122v-600zM245 746l-173 -84l-18 30l147 122z" />
    <glyph glyph-name="Icircumflex" unicode="&#xce;" horiz-adv-x="254" 
d="M188 0h-122v600h122v-600zM259 700l-33 -34l-98 76l-97 -76l-33 34l130 121z" />
    <glyph glyph-name="Idieresis" unicode="&#xcf;" horiz-adv-x="254" 
d="M188 0h-122v600h122v-600zM266 674h-90v90h90v-90zM85 674h-91v90h91v-90z" />
    <glyph glyph-name="Igrave" unicode="&#xcc;" horiz-adv-x="254" 
d="M188 0h-122v600h122v-600zM203 692l-18 -30l-173 84l44 68z" />
    <glyph glyph-name="Oacute" unicode="&#xd3;" horiz-adv-x="726" 
d="M688 300c0 -184 -141 -317 -324 -317c-184 0 -327 133 -327 317s143 317 327 317c183 0 324 -133 324 -317zM560 300c0 130 -78 220 -196 220c-120 0 -199 -90 -199 -220s79 -220 199 -220c118 0 196 90 196 220zM476 746l-173 -84l-18 30l147 122z" />
    <glyph glyph-name="Ocircumflex" unicode="&#xd4;" horiz-adv-x="726" 
d="M688 300c0 -184 -141 -317 -324 -317c-184 0 -327 133 -327 317s143 317 327 317c183 0 324 -133 324 -317zM560 300c0 130 -78 220 -196 220c-120 0 -199 -90 -199 -220s79 -220 199 -220c118 0 196 90 196 220zM490 700l-33 -34l-98 76l-97 -76l-33 34l130 121z" />
    <glyph glyph-name="Ograve" unicode="&#xd2;" horiz-adv-x="726" 
d="M688 300c0 -184 -141 -317 -324 -317c-184 0 -327 133 -327 317s143 317 327 317c183 0 324 -133 324 -317zM560 300c0 130 -78 220 -196 220c-120 0 -199 -90 -199 -220s79 -220 199 -220c118 0 196 90 196 220zM434 692l-18 -30l-173 84l44 68z" />
    <glyph glyph-name="Uacute" unicode="&#xda;" horiz-adv-x="684" 
d="M617 277c0 -203 -117 -294 -275 -294s-276 91 -276 294v323h124v-319c0 -130 56 -193 154 -193s154 63 154 193v319h119v-323zM478 746l-173 -84l-18 30l147 122z" />
    <glyph glyph-name="Ucircumflex" unicode="&#xdb;" horiz-adv-x="684" 
d="M617 277c0 -203 -117 -294 -275 -294s-276 91 -276 294v323h124v-319c0 -130 56 -193 154 -193s154 63 154 193v319h119v-323zM477 700l-33 -34l-98 76l-97 -76l-33 34l130 121z" />
    <glyph glyph-name="Ugrave" unicode="&#xd9;" horiz-adv-x="684" 
d="M617 277c0 -203 -117 -294 -275 -294s-276 91 -276 294v323h124v-319c0 -130 56 -193 154 -193s154 63 154 193v319h119v-323zM406 692l-18 -30l-173 84l44 68z" />
    <glyph glyph-name="dotlessi" unicode="&#x131;" horiz-adv-x="230" 
d="M171 0h-112v341h112v-341z" />
    <glyph glyph-name="circumflex" unicode="&#x2c6;" horiz-adv-x="300" 
d="M284 441l-33 -34l-98 76l-97 -76l-33 34l130 121z" />
    <glyph glyph-name="tilde" unicode="&#x2dc;" horiz-adv-x="300" 
d="M288 520c0 -73 -31 -108 -76 -108c-43 0 -85 49 -121 49c-21 0 -27 -13 -30 -45h-44c0 73 31 108 76 108c43 0 85 -49 121 -49c22 0 27 13 31 45h43z" />
    <glyph glyph-name="macron" unicode="&#xaf;" horiz-adv-x="300" 
d="M267 408h-228v55h228v-55z" />
    <glyph glyph-name="breve" unicode="&#x2d8;" horiz-adv-x="300" 
d="M258 521c0 -70 -46 -113 -105 -113s-105 43 -105 113h28c11 -32 41 -55 77 -55c35 0 67 22 77 55h28z" />
    <glyph glyph-name="dotaccent" unicode="&#x2d9;" horiz-adv-x="310" 
d="M199 415h-90v90h90v-90z" />
    <glyph glyph-name="ring" unicode="&#x2da;" horiz-adv-x="300" 
d="M252 506c0 -55 -43 -98 -99 -98s-99 43 -99 98c0 56 43 99 99 99s99 -43 99 -99zM204 506c0 29 -23 52 -51 52s-51 -23 -51 -52c0 -28 23 -50 51 -50s51 22 51 50z" />
    <glyph glyph-name="cedilla" unicode="&#xb8;" horiz-adv-x="300" 
d="M248 -122c0 -80 -87 -115 -180 -105v41c70 -4 113 16 113 59c0 37 -51 51 -99 35v27l106 108l45 -12l-73 -73c42 -3 88 -29 88 -80z" />
    <glyph glyph-name="hungarumlaut" unicode="&#x2dd;" horiz-adv-x="300" 
d="M181 487l-173 -84l-18 30l147 122zM320 487l-173 -84l-18 30l147 122z" />
    <glyph glyph-name="ogonek" unicode="&#x2db;" horiz-adv-x="300" 
d="M220 -76c-5 -44 -45 -72 -90 -72c-49 0 -86 37 -86 85c0 58 66 106 124 88l16 -1l-10 -24h-11c-26 0 -55 -19 -55 -43s14 -47 43 -47c18 0 34 5 43 23l13 28z" />
    <glyph glyph-name="caron" unicode="&#x2c7;" horiz-adv-x="300" 
d="M284 527l-131 -121l-130 121l33 34l97 -76l98 76z" />
    <glyph glyph-name="Asmall" unicode="&#xf761;" horiz-adv-x="489" 
d="M474 0h-111l-38 95h-165l-38 -95h-107l183 433h93zM243 310l-55 -142h110z" />
    <glyph glyph-name="Bsmall" unicode="&#xf762;" horiz-adv-x="434" 
d="M403 127c0 -70 -43 -127 -151 -127h-195v433h188c97 0 135 -51 135 -113c0 -33 -22 -69 -47 -85c44 -19 70 -63 70 -108zM294 132c0 38 -22 59 -69 59h-56v-119h56c47 0 69 21 69 60zM273 312c0 31 -18 49 -54 49h-50v-98h50c36 0 54 19 54 49z" />
    <glyph glyph-name="Csmall" unicode="&#xf763;" horiz-adv-x="461" 
d="M421 34c-36 -28 -93 -43 -152 -43c-125 0 -233 85 -233 226c0 140 108 225 233 225c59 0 116 -15 152 -43v-96c-34 29 -81 51 -134 51c-75 0 -135 -49 -135 -137s60 -138 135 -138c53 0 100 22 134 52v-97z" />
    <glyph glyph-name="Dsmall" unicode="&#xf764;" horiz-adv-x="510" 
d="M473 217c0 -120 -73 -217 -250 -217h-166v433h166c177 0 250 -97 250 -216zM359 217c0 86 -43 129 -145 129h-45v-259h45c102 0 145 43 145 130z" />
    <glyph glyph-name="Esmall" unicode="&#xf765;" horiz-adv-x="399" 
d="M355 0h-298v433h298v-85h-186v-78h150v-83h-150v-102h186v-85z" />
    <glyph glyph-name="Fsmall" unicode="&#xf766;" horiz-adv-x="364" 
d="M346 348h-177v-82h141v-84h-141v-182h-112v433h289v-85z" />
    <glyph glyph-name="Gsmall" unicode="&#xf767;" horiz-adv-x="508" 
d="M451 28c-26 -10 -97 -40 -185 -40c-125 0 -230 88 -230 229c0 140 112 225 239 225c60 0 122 -15 158 -43v-96c-37 29 -80 51 -141 51c-82 0 -141 -51 -141 -144c0 -90 56 -142 132 -142c25 0 46 5 64 13v74h-68v78h172v-205z" />
    <glyph glyph-name="Hsmall" unicode="&#xf768;" horiz-adv-x="515" 
d="M458 0h-112v181h-177v-181h-112v433h112v-157h177v157h112v-433z" />
    <glyph glyph-name="Ismall" unicode="&#xf769;" horiz-adv-x="226" 
d="M169 0h-112v433h112v-433z" />
    <glyph glyph-name="Jsmall" unicode="&#xf76a;" horiz-adv-x="226" 
d="M169 -18c0 -72 -41 -126 -120 -126c-39 0 -67 14 -81 26v66c10 -9 33 -18 48 -18c28 0 41 14 41 62v441h112v-451z" />
    <glyph glyph-name="Ksmall" unicode="&#xf76b;" horiz-adv-x="475" 
d="M473 0h-135l-169 197v-197h-112v433h112v-192l155 192h120l-171 -206z" />
    <glyph glyph-name="Lsmall" unicode="&#xf76c;" horiz-adv-x="373" 
d="M355 0h-298v433h112v-348h186v-85z" />
    <glyph glyph-name="Msmall" unicode="&#xf76d;" horiz-adv-x="604" 
d="M547 0h-100v241c0 10 2 41 3 45l-16 -45l-100 -241h-67l-101 241c-5 10 -15 40 -16 45c0 -3 3 -35 3 -45v-241h-96v433h125l121 -282l122 282h122v-433z" />
    <glyph glyph-name="Nsmall" unicode="&#xf76e;" horiz-adv-x="500" 
d="M441 0h-84l-201 255v-255h-99v433h84l202 -255v255h98v-433z" />
    <glyph glyph-name="Osmall" unicode="&#xf76f;" horiz-adv-x="551" 
d="M514 217c0 -133 -107 -229 -239 -229s-239 96 -239 229c0 132 107 228 239 228s239 -96 239 -228zM398 217c0 85 -48 141 -123 141s-123 -56 -123 -141s48 -142 123 -142s123 57 123 142z" />
    <glyph glyph-name="Psmall" unicode="&#xf770;" horiz-adv-x="415" 
d="M395 289c0 -78 -48 -144 -156 -144h-70v-145h-112v433h182c108 0 156 -65 156 -144zM284 289c0 42 -21 69 -71 69h-44v-138h44c50 0 71 27 71 69z" />
    <glyph glyph-name="Qsmall" unicode="&#xf771;" horiz-adv-x="551" 
d="M514 217c0 -97 -57 -176 -140 -209l18 -33c18 -32 36 -44 64 -44c9 0 16 0 25 4v-69c-14 -5 -35 -10 -52 -10c-54 0 -104 19 -138 89l-21 43c-130 2 -234 97 -234 229s107 228 239 228s239 -96 239 -228zM395 217c0 85 -45 141 -120 141s-120 -56 -120 -141
s45 -142 120 -142s120 57 120 142z" />
    <glyph glyph-name="Qsmall.alt" horiz-adv-x="551" 
d="M517 -94c-20 -28 -54 -50 -111 -50c-54 0 -99 27 -127 79l-28 54c-121 11 -215 102 -215 228c0 132 107 228 239 228s239 -96 239 -228c0 -105 -65 -186 -157 -217l19 -32c17 -29 33 -40 59 -40c18 0 39 9 52 22zM395 217c0 85 -45 141 -120 141s-120 -56 -120 -141
s45 -142 120 -142s120 57 120 142z" />
    <glyph glyph-name="Qsmall.alt2" horiz-adv-x="551" 
d="M514 217c0 -87 -44 -156 -111 -196l87 -118h-131l-59 86c-8 -1 -16 -1 -25 -1c-132 0 -239 96 -239 229c0 132 107 228 239 228s239 -96 239 -228zM395 217c0 85 -45 141 -120 141s-120 -56 -120 -141s45 -142 120 -142s120 57 120 142z" />
    <glyph glyph-name="Rsmall" unicode="&#xf772;" horiz-adv-x="456" 
d="M442 0h-123l-114 168h-36v-168h-112v433h193c104 0 150 -63 150 -133c0 -58 -31 -104 -86 -121zM289 299c0 38 -20 59 -67 59h-53v-118h53c47 0 67 21 67 59z" />
    <glyph glyph-name="Ssmall" unicode="&#xf773;" horiz-adv-x="390" 
d="M357 130c0 -100 -81 -139 -168 -139c-74 0 -128 28 -161 56l25 81c32 -28 79 -58 136 -58c37 0 67 16 67 48c0 30 -21 44 -84 59c-98 23 -132 74 -132 137c0 78 61 129 157 129c57 0 107 -20 140 -44l-23 -73c-32 20 -77 38 -119 38c-35 0 -55 -16 -55 -39
c0 -21 14 -36 66 -48c107 -25 151 -70 151 -147z" />
    <glyph glyph-name="Tsmall" unicode="&#xf774;" horiz-adv-x="427" 
d="M410 348h-141v-348h-112v348h-141v85h394v-85z" />
    <glyph glyph-name="Usmall" unicode="&#xf775;" horiz-adv-x="530" 
d="M472 200c0 -147 -91 -212 -208 -212c-115 0 -207 65 -207 212v233h113v-228c0 -79 33 -120 96 -120c64 0 96 41 96 120v228h110v-233z" />
    <glyph glyph-name="Vsmall" unicode="&#xf776;" horiz-adv-x="484" 
d="M469 433l-182 -433h-89l-183 433h116l113 -283l113 283h112z" />
    <glyph glyph-name="Wsmall" unicode="&#xf777;" horiz-adv-x="665" 
d="M650 433l-147 -433h-87l-73 228c-4 11 -9 36 -10 41c-1 -3 -7 -29 -11 -41l-72 -228h-88l-147 433h110l74 -232c4 -12 10 -49 11 -53c1 4 9 40 13 53l69 232h84l70 -232c3 -11 10 -46 12 -52c1 5 7 40 11 52l74 232h107z" />
    <glyph glyph-name="Xsmall" unicode="&#xf778;" horiz-adv-x="468" 
d="M462 0h-127l-101 152l-103 -152h-124l156 222l-148 211h128l92 -140l94 140h124l-148 -211z" />
    <glyph glyph-name="Ysmall" unicode="&#xf779;" horiz-adv-x="473" 
d="M462 433l-170 -260v-173h-112v173l-169 260h122l105 -168l104 168h120z" />
    <glyph glyph-name="Zsmall" unicode="&#xf77a;" horiz-adv-x="410" 
d="M376 383l-197 -298h194v-85h-338v50l197 298h-192v85h336v-50z" />
    <glyph glyph-name="Oslashsmall" unicode="&#xf7f8;" horiz-adv-x="551" 
d="M365 319l-152 -228c18 -11 38 -16 62 -16c75 0 123 57 123 142c0 42 -12 77 -33 102zM185 114l152 228c-17 11 -38 16 -62 16c-75 0 -123 -56 -123 -141c0 -42 12 -78 33 -103zM131 32c-58 41 -95 107 -95 185c0 132 107 228 239 228c41 0 79 -9 113 -26l34 52l31 -19
l-34 -51c58 -41 95 -106 95 -184c0 -133 -107 -229 -239 -229c-41 0 -79 9 -113 26l-34 -52l-31 19z" />
    <glyph glyph-name="AEsmall" unicode="&#xf7e6;" horiz-adv-x="654" 
d="M611 0h-298v90h-141l-49 -90h-108l247 433h349v-85h-186v-78h150v-83h-150v-102h186v-85zM313 167v188l-100 -188h100z" />
    <glyph glyph-name="OEsmall" unicode="&#xf6fa;" horiz-adv-x="683" 
d="M639 0h-352c-177 0 -250 97 -250 217c0 119 73 216 250 216h352v-85h-186v-78h150v-83h-150v-102h186v-85zM341 87v259h-46c-100 0 -144 -43 -144 -129c0 -87 44 -130 144 -130h46z" />
    <glyph glyph-name="Ethsmall" unicode="&#xf7f0;" horiz-adv-x="510" 
d="M473 217c0 -120 -73 -217 -250 -217h-166v191h-42v53h42v189h166c177 0 250 -97 250 -216zM359 217c0 86 -43 129 -145 129h-45v-102h76v-53h-76v-104h45c102 0 145 43 145 130z" />
    <glyph glyph-name="Aacutesmall" unicode="&#xf7e1;" horiz-adv-x="489" 
d="M477 0h-111l-38 95h-165l-38 -95h-107l183 433h93zM246 310l-55 -142h110zM352 577l-173 -84l-18 30l147 122z" />
    <glyph glyph-name="Acircumflexsmall" unicode="&#xf7e2;" horiz-adv-x="489" 
d="M477 0h-111l-38 95h-165l-38 -95h-107l183 433h93zM246 310l-55 -142h110zM378 531l-33 -34l-98 76l-97 -76l-33 34l130 121z" />
    <glyph glyph-name="Adieresissmall" unicode="&#xf7e4;" horiz-adv-x="489" 
d="M477 0h-111l-38 95h-165l-38 -95h-107l183 433h93zM246 310l-55 -142h110zM383 505h-90v90h90v-90zM202 505h-91v90h91v-90z" />
    <glyph glyph-name="Agravesmall" unicode="&#xf7e0;" horiz-adv-x="489" 
d="M330 523l-18 -30l-173 84l44 68zM477 0h-111l-38 95h-165l-38 -95h-107l183 433h93zM246 310l-55 -142h110z" />
    <glyph glyph-name="Aringsmall" unicode="&#xf7e5;" horiz-adv-x="489" 
d="M477 0h-111l-38 95h-165l-38 -95h-107l183 433h93zM246 310l-55 -142h110zM346 596c0 -55 -43 -98 -99 -98s-99 43 -99 98c0 56 43 99 99 99s99 -43 99 -99zM298 596c0 29 -23 52 -51 52s-51 -23 -51 -52c0 -28 23 -50 51 -50s51 22 51 50z" />
    <glyph glyph-name="Atildesmall" unicode="&#xf7e3;" horiz-adv-x="489" 
d="M477 0h-111l-38 95h-165l-38 -95h-107l183 433h93zM246 310l-55 -142h110zM381 610c0 -73 -31 -108 -76 -108c-43 0 -85 49 -121 49c-21 0 -27 -13 -30 -45h-44c0 73 31 108 76 108c43 0 85 -49 121 -49c22 0 27 13 31 45h43z" />
    <glyph glyph-name="Ccedillasmall" unicode="&#xf7e7;" horiz-adv-x="461" 
d="M226 -5c-104 18 -187 99 -187 222c0 140 108 225 233 225c59 0 116 -15 152 -43v-96c-34 29 -81 51 -134 51c-75 0 -135 -49 -135 -137s60 -138 135 -138c53 0 100 22 134 52v-97c-35 -27 -89 -42 -146 -43l-28 -28c42 -3 88 -29 88 -80c0 -80 -87 -115 -180 -105v41
c70 -4 113 16 113 59c0 37 -51 51 -99 35v27z" />
    <glyph glyph-name="Eacutesmall" unicode="&#xf7e9;" horiz-adv-x="399" 
d="M358 0h-298v433h298v-85h-186v-78h150v-83h-150v-102h186v-85zM314 577l-173 -84l-18 30l147 122z" />
    <glyph glyph-name="Ecircumflexsmall" unicode="&#xf7ea;" horiz-adv-x="399" 
d="M358 0h-298v433h298v-85h-186v-78h150v-83h-150v-102h186v-85zM338 531l-33 -34l-98 76l-97 -76l-33 34l130 121z" />
    <glyph glyph-name="Edieresissmall" unicode="&#xf7eb;" horiz-adv-x="399" 
d="M358 0h-298v433h298v-85h-186v-78h150v-83h-150v-102h186v-85zM345 505h-90v90h90v-90zM164 505h-91v90h91v-90z" />
    <glyph glyph-name="Egravesmall" unicode="&#xf7e8;" horiz-adv-x="399" 
d="M292 523l-18 -30l-173 84l44 68zM358 0h-298v433h298v-85h-186v-78h150v-83h-150v-102h186v-85z" />
    <glyph glyph-name="Iacutesmall" unicode="&#xf7ed;" horiz-adv-x="226" 
d="M222 577l-173 -84l-18 30l147 122zM169 0h-112v433h112v-433z" />
    <glyph glyph-name="Icircumflexsmall" unicode="&#xf7ee;" horiz-adv-x="226" 
d="M169 0h-112v433h112v-433zM244 531l-33 -34l-98 76l-97 -76l-33 34l130 121z" />
    <glyph glyph-name="Idieresissmall" unicode="&#xf7ef;" horiz-adv-x="226" 
d="M250 505h-90v90h90v-90zM69 505h-91v90h91v-90zM169 0h-112v433h112v-433z" />
    <glyph glyph-name="Igravesmall" unicode="&#xf7ec;" horiz-adv-x="226" 
d="M195 523l-18 -30l-173 84l44 68zM169 0h-112v433h112v-433z" />
    <glyph glyph-name="Lslashsmall" unicode="&#xf6f9;" horiz-adv-x="373" 
d="M355 0h-298v162l-33 -20l-20 43l53 32v216h112v-155l46 28l19 -42l-65 -40v-139h186v-85z" />
    <glyph glyph-name="Ntildesmall" unicode="&#xf7f1;" horiz-adv-x="500" 
d="M444 0h-84l-201 255v-255h-99v433h84l202 -255v255h98v-433zM386 610c0 -73 -31 -108 -76 -108c-43 0 -85 49 -121 49c-21 0 -27 -13 -30 -45h-44c0 73 31 108 76 108c43 0 85 -49 121 -49c22 0 27 13 31 45h43z" />
    <glyph glyph-name="Oacutesmall" unicode="&#xf7f3;" horiz-adv-x="551" 
d="M517 217c0 -133 -107 -229 -239 -229s-239 96 -239 229c0 132 107 228 239 228s239 -96 239 -228zM401 217c0 85 -48 141 -123 141s-123 -56 -123 -141s48 -142 123 -142s123 57 123 142zM394 577l-173 -84l-18 30l147 122z" />
    <glyph glyph-name="Ocircumflexsmall" unicode="&#xf7f4;" horiz-adv-x="551" 
d="M517 217c0 -133 -107 -229 -239 -229s-239 96 -239 229c0 132 107 228 239 228s239 -96 239 -228zM401 217c0 85 -48 141 -123 141s-123 -56 -123 -141s48 -142 123 -142s123 57 123 142zM410 531l-33 -34l-98 76l-97 -76l-33 34l130 121z" />
    <glyph glyph-name="Odieresissmall" unicode="&#xf7f6;" horiz-adv-x="551" 
d="M517 217c0 -133 -107 -229 -239 -229s-239 96 -239 229c0 132 107 228 239 228s239 -96 239 -228zM401 217c0 85 -48 141 -123 141s-123 -56 -123 -141s48 -142 123 -142s123 57 123 142zM415 505h-90v90h90v-90zM234 505h-91v90h91v-90z" />
    <glyph glyph-name="Ogravesmall" unicode="&#xf7f2;" horiz-adv-x="551" 
d="M352 523l-18 -30l-173 84l44 68zM517 217c0 -133 -107 -229 -239 -229s-239 96 -239 229c0 132 107 228 239 228s239 -96 239 -228zM401 217c0 85 -48 141 -123 141s-123 -56 -123 -141s48 -142 123 -142s123 57 123 142z" />
    <glyph glyph-name="Otildesmall" unicode="&#xf7f5;" horiz-adv-x="551" 
d="M517 217c0 -133 -107 -229 -239 -229s-239 96 -239 229c0 132 107 228 239 228s239 -96 239 -228zM401 217c0 85 -48 141 -123 141s-123 -56 -123 -141s48 -142 123 -142s123 57 123 142zM411 610c0 -73 -31 -108 -76 -108c-43 0 -85 49 -121 49c-21 0 -27 -13 -30 -45
h-44c0 73 31 108 76 108c43 0 85 -49 121 -49c22 0 27 13 31 45h43z" />
    <glyph glyph-name="Scaronsmall" unicode="&#xf6fd;" horiz-adv-x="390" 
d="M360 130c0 -100 -81 -139 -168 -139c-74 0 -128 28 -161 56l25 81c32 -28 79 -58 136 -58c37 0 67 16 67 48c0 30 -21 44 -84 59c-98 23 -132 74 -132 137c0 78 61 129 157 129c57 0 107 -20 140 -44l-23 -73c-32 20 -77 38 -119 38c-35 0 -55 -16 -55 -39
c0 -21 14 -36 66 -48c107 -25 151 -70 151 -147zM332 617l-131 -121l-130 121l33 34l97 -76l98 76z" />
    <glyph glyph-name="Thornsmall" unicode="&#xf7fe;" horiz-adv-x="415" 
d="M395 223c0 -78 -48 -144 -156 -144h-70v-79h-112v433h112v-66h70c108 0 156 -66 156 -144zM284 223c0 42 -21 69 -71 69h-44v-138h44c50 0 71 27 71 69z" />
    <glyph glyph-name="Uacutesmall" unicode="&#xf7fa;" horiz-adv-x="530" 
d="M475 200c0 -147 -91 -212 -208 -212c-115 0 -207 65 -207 212v233h113v-228c0 -79 33 -120 96 -120c64 0 96 41 96 120v228h110v-233zM384 577l-173 -84l-18 30l147 122z" />
    <glyph glyph-name="Ucircumflexsmall" unicode="&#xf7fb;" horiz-adv-x="530" 
d="M475 200c0 -147 -91 -212 -208 -212c-115 0 -207 65 -207 212v233h113v-228c0 -79 33 -120 96 -120c64 0 96 41 96 120v228h110v-233zM398 531l-33 -34l-98 76l-97 -76l-33 34l130 121z" />
    <glyph glyph-name="Udieresissmall" unicode="&#xf7fc;" horiz-adv-x="530" 
d="M475 200c0 -147 -91 -212 -208 -212c-115 0 -207 65 -207 212v233h113v-228c0 -79 33 -120 96 -120c64 0 96 41 96 120v228h110v-233zM405 505h-90v90h90v-90zM224 505h-91v90h91v-90z" />
    <glyph glyph-name="Ugravesmall" unicode="&#xf7f9;" horiz-adv-x="530" 
d="M332 523l-18 -30l-173 84l44 68zM475 200c0 -147 -91 -212 -208 -212c-115 0 -207 65 -207 212v233h113v-228c0 -79 33 -120 96 -120c64 0 96 41 96 120v228h110v-233z" />
    <glyph glyph-name="Yacutesmall" unicode="&#xf7fd;" horiz-adv-x="473" 
d="M465 433l-170 -260v-173h-112v173l-169 260h122l105 -168l104 168h120zM364 577l-173 -84l-18 30l147 122z" />
    <glyph glyph-name="Ydieresissmall" unicode="&#xf7ff;" horiz-adv-x="473" 
d="M465 433l-170 -260v-173h-112v173l-169 260h122l105 -168l104 168h120zM376 504h-90v90h90v-90zM195 504h-91v90h91v-90z" />
    <glyph glyph-name="Zcaronsmall" unicode="&#xf6ff;" horiz-adv-x="410" 
d="M379 383l-197 -298h194v-85h-338v50l197 298h-192v85h336v-50zM339 617l-131 -121l-130 121l33 34l97 -76l98 76z" />
    <glyph glyph-name="dotlessi.small" horiz-adv-x="226" 
d="M169 0h-112v433h112v-433z" />
    <glyph glyph-name="germandbls.small" horiz-adv-x="780" 
d="M357 130c0 -100 -81 -139 -168 -139c-74 0 -128 28 -161 56l25 83c32 -28 79 -58 136 -58c37 0 65 15 65 46c0 30 -19 43 -82 58c-98 23 -132 75 -132 138c0 78 61 129 157 129c57 0 107 -20 140 -44l-23 -75c-32 20 -77 38 -119 38c-33 0 -53 -14 -53 -37
c0 -21 14 -35 64 -47c107 -25 151 -71 151 -148zM747 130c0 -100 -81 -139 -168 -139c-74 0 -128 28 -161 56l25 83c32 -28 79 -58 136 -58c37 0 65 15 65 46c0 30 -19 43 -82 58c-98 23 -132 75 -132 138c0 78 61 129 157 129c57 0 107 -20 140 -44l-23 -75
c-32 20 -77 38 -119 38c-33 0 -53 -14 -53 -37c0 -21 14 -35 64 -47c107 -25 151 -71 151 -148z" />
    <glyph glyph-name="currency" unicode="&#xa4;" horiz-adv-x="542" 
d="M498 28c-35 -25 -99 -42 -152 -42c-134 0 -226 84 -251 230h-62v51h56c-1 11 -1 23 -1 35c0 11 0 21 1 31h-56v51h62c23 148 116 233 251 233c53 0 111 -16 152 -42v-97c-40 34 -87 48 -139 48c-81 0 -129 -45 -144 -142h165v-51h-170c-1 -10 -1 -20 -1 -31
c0 -12 0 -24 1 -35h170v-51h-165c17 -95 64 -139 144 -139c51 0 98 16 139 48v-97z" />
    <glyph glyph-name="zero.oprp" horiz-adv-x="564" 
d="M528 216c0 -139 -112 -232 -245 -232c-135 0 -247 93 -247 232c0 137 112 232 247 232c133 0 245 -95 245 -232zM411 216c0 94 -56 148 -128 148c-75 0 -130 -54 -130 -148c0 -95 55 -148 130 -148c72 0 128 53 128 148z" />
    <glyph glyph-name="one.oprp" horiz-adv-x="300" 
d="M213 0h-116v338h-64v75l180 32v-445z" />
    <glyph glyph-name="two.oprp" horiz-adv-x="485" 
d="M443 0h-401v76l161 104c65 42 105 73 105 113c0 45 -37 62 -84 62c-52 0 -115 -24 -169 -67v101c36 28 115 59 182 59c109 0 192 -53 192 -140c0 -73 -49 -117 -114 -153l-110 -62h238v-93z" />
    <glyph glyph-name="three.oprp" horiz-adv-x="485" 
d="M447 7c0 -128 -100 -209 -226 -209c-74 0 -143 27 -182 62v99c45 -42 99 -73 167 -73c74 0 125 49 125 123c0 64 -37 110 -105 110c-36 0 -64 -16 -84 -34l-49 54l192 198h-244v95h398v-56l-171 -177c101 -7 179 -75 179 -192z" />
    <glyph glyph-name="four.oprp" horiz-adv-x="548" 
d="M524 0h-109v-195h-116v195h-276v62l297 379h95v-355h109v-86zM299 86v205l-161 -205h161z" />
    <glyph glyph-name="five.oprp" horiz-adv-x="480" 
d="M446 10c0 -131 -99 -212 -225 -212c-74 0 -143 27 -182 62v99c42 -41 99 -73 167 -73c74 0 123 50 123 121c0 65 -39 110 -108 110c-50 0 -85 -20 -107 -64l-54 27v352h362v-95h-268v-165c21 19 57 33 101 33c110 0 191 -76 191 -195z" />
    <glyph glyph-name="six.oprp" 
d="M488 188c0 -120 -95 -205 -217 -205c-96 0 -227 49 -227 284c0 214 91 351 265 351c63 0 119 -22 143 -40v-91c-36 23 -85 42 -132 42c-89 0 -155 -51 -159 -207c22 35 78 67 140 67c109 0 187 -80 187 -201zM270 306c-51 0 -108 -38 -108 -110c0 -85 49 -131 104 -131
c65 0 105 50 105 120c0 69 -34 121 -101 121z" />
    <glyph glyph-name="seven.oprp" horiz-adv-x="458" 
d="M435 377c-49 -72 -195 -383 -226 -572h-125c39 187 190 486 222 532h-293v95h422v-55z" />
    <glyph glyph-name="eight.oprp" horiz-adv-x="545" 
d="M506 164c0 -110 -104 -181 -233 -181s-234 71 -234 181c0 84 56 143 133 170c-64 27 -97 78 -97 137c0 88 94 149 198 149c103 0 197 -61 197 -149c0 -59 -33 -110 -96 -137c76 -27 132 -86 132 -170zM359 460c0 51 -35 84 -86 84c-52 0 -87 -33 -87 -84
c0 -44 36 -85 87 -85s86 41 86 85zM273 286c-66 0 -116 -45 -116 -111c0 -64 49 -111 116 -111s115 47 115 111c0 66 -49 111 -115 111z" />
    <glyph glyph-name="nine.oprp" 
d="M481 165c0 -214 -91 -365 -265 -365c-63 0 -120 22 -143 40v91c36 -23 85 -42 132 -42c89 0 154 65 158 221c-22 -35 -77 -67 -139 -67c-109 0 -188 80 -188 201c0 120 96 205 218 205c96 0 227 -49 227 -284zM363 236c0 85 -49 131 -104 131c-65 0 -105 -50 -105 -120
c0 -69 34 -121 101 -121c51 0 108 38 108 110z" />
    <glyph glyph-name="zero.otab" 
d="M493 216c0 -139 -97 -232 -230 -232c-135 0 -230 93 -230 232c0 137 95 232 230 232c133 0 230 -95 230 -232zM376 216c0 94 -46 148 -113 148c-70 0 -113 -54 -113 -148c0 -95 43 -148 113 -148c67 0 113 53 113 148z" />
    <glyph glyph-name="one.otab" 
d="M325 0h-116v338h-64v75l180 32v-445z" />
    <glyph glyph-name="two.otab" 
d="M461 0h-401v76l161 104c65 42 105 73 105 113c0 45 -37 62 -84 62c-52 0 -115 -24 -169 -67v101c36 28 115 59 182 59c109 0 192 -53 192 -140c0 -73 -49 -117 -114 -153l-110 -62h238v-93z" />
    <glyph glyph-name="three.otab" 
d="M467 7c0 -128 -100 -209 -226 -209c-74 0 -143 27 -182 62v99c45 -42 99 -73 167 -73c74 0 125 49 125 123c0 64 -37 110 -105 110c-36 0 -64 -16 -84 -34l-49 54l192 198h-244v95h398v-56l-171 -177c101 -7 179 -75 179 -192z" />
    <glyph glyph-name="four.otab" 
d="M503 0h-99v-195h-116v195h-266v62l287 379h95v-355h99v-86zM288 86v202l-153 -202h153z" />
    <glyph glyph-name="five.otab" 
d="M468 10c0 -131 -99 -212 -225 -212c-74 0 -143 27 -182 62v99c42 -41 99 -73 167 -73c74 0 123 50 123 121c0 65 -39 110 -108 110c-50 0 -85 -20 -107 -64l-54 27v352h362v-95h-268v-165c21 19 57 33 101 33c110 0 191 -76 191 -195z" />
    <glyph glyph-name="six.otab" 
d="M488 188c0 -120 -95 -205 -217 -205c-96 0 -227 49 -227 284c0 214 91 351 265 351c63 0 119 -22 143 -40v-91c-36 23 -85 42 -132 42c-89 0 -155 -51 -159 -207c22 35 78 67 140 67c109 0 187 -80 187 -201zM270 306c-51 0 -108 -38 -108 -110c0 -85 49 -131 104 -131
c65 0 105 50 105 120c0 69 -34 121 -101 121z" />
    <glyph glyph-name="seven.otab" 
d="M468 377c-49 -72 -195 -383 -226 -572h-125c39 187 190 486 222 532h-293v95h422v-55z" />
    <glyph glyph-name="eight.otab" 
d="M489 164c0 -110 -102 -181 -226 -181s-227 71 -227 181c0 84 56 143 130 170c-61 27 -95 78 -95 137c0 88 92 149 192 149c99 0 191 -61 191 -149c0 -59 -34 -110 -94 -137c73 -27 129 -86 129 -170zM346 460c0 51 -34 84 -83 84c-50 0 -84 -33 -84 -84
c0 -44 35 -85 84 -85s83 41 83 85zM263 286c-63 0 -111 -45 -111 -111c0 -64 47 -111 111 -111s110 47 110 111c0 66 -47 111 -110 111z" />
    <glyph glyph-name="nine.otab" 
d="M481 165c0 -214 -91 -365 -265 -365c-63 0 -120 22 -143 40v91c36 -23 85 -42 132 -42c89 0 154 65 158 221c-22 -35 -77 -67 -139 -67c-109 0 -188 80 -188 201c0 120 96 205 218 205c96 0 227 -49 227 -284zM363 236c0 85 -49 131 -104 131c-65 0 -105 -50 -105 -120
c0 -69 34 -121 101 -121c51 0 108 38 108 110z" />
    <glyph glyph-name="zero.ltab" 
d="M489 302c0 -200 -86 -319 -226 -319c-139 0 -226 119 -226 319c0 199 87 318 226 318c140 0 226 -119 226 -318zM368 302c0 148 -29 225 -105 225s-105 -77 -105 -225c0 -149 30 -226 105 -226c76 0 105 77 105 226z" />
    <glyph glyph-name="one.ltab" 
d="M325 0h-116v506h-64v75l180 32v-613z" />
    <glyph glyph-name="two.ltab" 
d="M455 0h-401v67l157 163c56 59 109 118 109 193c0 73 -48 99 -97 99s-102 -21 -154 -65v100c33 29 112 61 175 61c113 0 198 -67 198 -180c0 -104 -67 -177 -122 -227l-123 -116h258v-95z" />
    <glyph glyph-name="three.ltab" 
d="M467 189c0 -129 -100 -206 -226 -206c-74 0 -143 27 -182 62v99c45 -42 99 -73 167 -73c74 0 125 46 125 120c0 64 -37 107 -105 107c-36 0 -64 -15 -84 -34l-49 55l190 186h-242v95h398v-56l-169 -166c99 -6 177 -72 177 -189z" />
    <glyph glyph-name="four.ltab" 
d="M503 147h-99v-147h-116v147h-266v62l287 396h95v-373h99v-85zM288 232v211l-153 -211h153z" />
    <glyph glyph-name="five.ltab" 
d="M468 195c0 -131 -99 -212 -225 -212c-74 0 -143 27 -182 62v99c42 -41 99 -73 167 -73c74 0 123 50 123 121c0 65 -39 110 -108 110c-50 0 -85 -20 -107 -64l-54 27v335h362v-95h-268v-148c21 19 57 33 101 33c110 0 191 -76 191 -195z" />
    <glyph glyph-name="six.ltab" 
d="M488 188c0 -120 -95 -205 -217 -205c-96 0 -227 49 -227 284c0 214 91 351 265 351c63 0 119 -22 143 -40v-91c-36 23 -85 42 -132 42c-89 0 -155 -51 -159 -207c22 35 78 67 140 67c109 0 187 -80 187 -201zM270 306c-51 0 -108 -38 -108 -110c0 -85 49 -131 104 -131
c65 0 105 50 105 120c0 69 -34 121 -101 121z" />
    <glyph glyph-name="seven.ltab" 
d="M468 545c-49 -72 -195 -356 -226 -545h-125c39 187 190 459 222 505h-293v95h422v-55z" />
    <glyph glyph-name="eight.ltab" 
d="M489 164c0 -110 -102 -181 -226 -181s-227 71 -227 181c0 84 56 143 130 170c-61 27 -95 78 -95 137c0 88 92 149 192 149c99 0 191 -61 191 -149c0 -59 -34 -110 -94 -137c73 -27 129 -86 129 -170zM346 460c0 51 -34 84 -83 84c-50 0 -84 -33 -84 -84
c0 -44 35 -85 84 -85s83 41 83 85zM263 286c-63 0 -111 -45 -111 -111c0 -64 47 -111 111 -111s110 47 110 111c0 66 -47 111 -110 111z" />
    <glyph glyph-name="nine.ltab" 
d="M481 336c0 -214 -91 -351 -265 -351c-63 0 -120 22 -143 40v91c36 -23 85 -42 132 -42c89 0 154 51 158 207c-22 -35 -77 -67 -139 -67c-109 0 -188 80 -188 201c0 120 96 205 218 205c96 0 227 -49 227 -284zM363 407c0 85 -49 131 -104 131c-65 0 -105 -50 -105 -120
c0 -69 34 -121 101 -121c51 0 108 38 108 110z" />
    <glyph glyph-name="zero.nfra" horiz-adv-x="360" 
d="M322 441c0 -108 -61 -170 -142 -170s-142 62 -142 170c0 107 61 169 142 169s142 -62 142 -169zM235 441c0 77 -21 107 -55 107c-35 0 -54 -30 -54 -107c0 -78 19 -108 54 -108c34 0 55 30 55 108z" />
    <glyph glyph-name="one.nfra" horiz-adv-x="217" 
d="M154 280h-84v260h-35v49l119 18v-327z" />
    <glyph glyph-name="two.nfra" horiz-adv-x="291" 
d="M255 280h-229v39l75 78c31 32 61 64 61 103c0 34 -25 46 -45 46c-25 0 -51 -10 -83 -36v66c22 17 65 33 101 33c64 0 113 -38 113 -99c0 -54 -36 -93 -66 -120l-53 -46h126v-64z" />
    <glyph glyph-name="three.nfra" horiz-adv-x="305" 
d="M269 382c0 -69 -56 -111 -128 -111c-45 0 -81 15 -104 34v65c27 -25 59 -40 91 -40c35 0 57 20 57 54c0 30 -18 48 -47 48c-18 0 -35 -10 -43 -18l-29 34l95 88h-123v64h227v-39l-85 -78c49 -7 89 -43 89 -101z" />
    <glyph glyph-name="four.nfra" horiz-adv-x="349" 
d="M319 351h-60v-71h-84v71h-145v41l155 210h74v-193h60v-58zM175 409v101l-76 -101h76z" />
    <glyph glyph-name="five.nfra" horiz-adv-x="304" 
d="M268 385c0 -72 -55 -114 -127 -114c-45 0 -81 15 -104 34v65c27 -25 59 -40 91 -40c35 0 55 22 55 53c0 30 -19 47 -49 47c-22 0 -42 -11 -53 -27l-32 15v182h206v-64h-143v-61c10 7 27 12 49 12c63 0 107 -41 107 -102z" />
    <glyph glyph-name="six.nfra" horiz-adv-x="330" 
d="M293 383c0 -67 -54 -112 -125 -112c-55 0 -129 26 -129 152c0 114 53 186 151 186c37 0 71 -13 83 -22v-59c-21 13 -49 22 -74 22c-41 0 -72 -22 -75 -85c10 12 38 24 64 24c65 0 105 -44 105 -106zM210 379c0 35 -12 57 -42 57c-24 0 -46 -15 -46 -53s17 -60 44 -60
c30 0 44 21 44 56z" />
    <glyph glyph-name="seven.nfra" horiz-adv-x="294" 
d="M266 562c-27 -40 -102 -181 -119 -282h-88c21 100 99 231 117 256h-151v64h241v-38z" />
    <glyph glyph-name="eight.nfra" horiz-adv-x="338" 
d="M301 369c0 -61 -59 -98 -132 -98s-132 37 -132 98c0 43 29 73 70 89c-34 15 -50 41 -50 71c0 49 52 81 112 81c59 0 112 -32 112 -81c0 -30 -17 -56 -51 -71c41 -16 71 -46 71 -89zM205 522c0 24 -11 40 -36 40c-24 0 -37 -16 -37 -40c0 -19 13 -40 37 -40
c25 0 36 21 36 40zM218 375c0 31 -17 53 -49 53c-31 0 -49 -22 -49 -53c0 -32 18 -54 49 -54c32 0 49 22 49 54z" />
    <glyph glyph-name="nine.nfra" horiz-adv-x="330" 
d="M291 458c0 -114 -53 -186 -150 -186c-37 0 -72 13 -83 22v59c21 -13 49 -22 74 -22c41 0 71 22 74 85c-10 -12 -38 -24 -63 -24c-65 0 -106 44 -106 106c0 67 54 112 125 112c55 0 129 -26 129 -152zM208 498c0 38 -16 60 -43 60c-30 0 -44 -21 -44 -56s12 -57 41 -57
c24 0 46 15 46 53z" />
    <glyph glyph-name="zero.dfra" horiz-adv-x="360" 
d="M322 161c0 -108 -61 -170 -142 -170s-142 62 -142 170c0 107 61 169 142 169s142 -62 142 -169zM235 161c0 77 -21 107 -55 107c-35 0 -54 -30 -54 -107c0 -78 19 -108 54 -108c34 0 55 30 55 108z" />
    <glyph glyph-name="one.dfra" horiz-adv-x="217" 
d="M154 0h-84v260h-35v49l119 18v-327z" />
    <glyph glyph-name="two.dfra" horiz-adv-x="291" 
d="M255 0h-229v39l75 78c31 32 61 64 61 103c0 34 -25 46 -45 46c-25 0 -51 -10 -83 -36v66c22 17 65 33 101 33c64 0 113 -38 113 -99c0 -54 -35 -93 -66 -120l-53 -46h126v-64z" />
    <glyph glyph-name="three.dfra" horiz-adv-x="305" 
d="M269 102c0 -69 -56 -111 -128 -111c-45 0 -81 15 -104 34v65c27 -25 59 -40 91 -40c35 0 57 20 57 54c0 30 -18 48 -47 48c-18 0 -35 -10 -43 -18l-29 34l95 88h-123v64h227v-39l-85 -78c49 -7 89 -43 89 -101z" />
    <glyph glyph-name="four.dfra" horiz-adv-x="349" 
d="M319 71h-60v-71h-84v71h-145v41l155 210h74v-193h60v-58zM175 129v101l-76 -101h76z" />
    <glyph glyph-name="five.dfra" horiz-adv-x="304" 
d="M268 105c0 -72 -55 -114 -127 -114c-45 0 -81 15 -104 34v65c27 -25 59 -40 91 -40c35 0 55 22 55 53c0 30 -19 47 -49 47c-22 0 -42 -11 -53 -27l-32 15v182h206v-64h-143v-61c10 7 27 12 49 12c63 0 107 -41 107 -102z" />
    <glyph glyph-name="six.dfra" horiz-adv-x="330" 
d="M293 103c0 -67 -54 -112 -125 -112c-55 0 -129 26 -129 152c0 114 53 186 151 186c37 0 71 -13 83 -22v-59c-21 13 -49 22 -74 22c-41 0 -72 -22 -75 -85c10 12 38 24 64 24c65 0 105 -44 105 -106zM210 99c0 35 -12 57 -42 57c-24 0 -46 -15 -46 -53s17 -60 44 -60
c30 0 44 21 44 56z" />
    <glyph glyph-name="seven.dfra" horiz-adv-x="294" 
d="M266 282c-27 -40 -102 -181 -119 -282h-88c21 100 99 231 117 256h-151v64h241v-38z" />
    <glyph glyph-name="eight.dfra" horiz-adv-x="338" 
d="M301 89c0 -61 -59 -98 -132 -98s-132 37 -132 98c0 43 29 73 70 89c-34 15 -50 41 -50 71c0 49 52 81 112 81c59 0 112 -32 112 -81c0 -30 -17 -56 -51 -71c41 -16 71 -46 71 -89zM205 242c0 24 -11 40 -36 40c-24 0 -37 -16 -37 -40c0 -19 13 -40 37 -40
c25 0 36 21 36 40zM218 95c0 31 -17 53 -49 53c-31 0 -49 -22 -49 -53c0 -32 18 -54 49 -54c32 0 49 22 49 54z" />
    <glyph glyph-name="nine.dfra" horiz-adv-x="330" 
d="M291 178c0 -114 -53 -186 -150 -186c-37 0 -72 13 -83 22v59c21 -13 49 -22 74 -22c41 0 71 22 74 85c-10 -12 -38 -24 -63 -24c-65 0 -106 44 -106 106c0 67 54 112 125 112c55 0 129 -26 129 -152zM208 218c0 38 -16 60 -43 60c-30 0 -44 -21 -44 -56s12 -57 41 -57
c24 0 46 15 46 53z" />
    <glyph glyph-name="zeroinferior" unicode="&#x2080;" horiz-adv-x="360" 
d="M322 56c0 -108 -61 -170 -142 -170s-142 62 -142 170c0 107 61 169 142 169s142 -62 142 -169zM235 56c0 77 -21 107 -55 107c-35 0 -54 -30 -54 -107c0 -78 19 -108 54 -108c34 0 55 30 55 108z" />
    <glyph glyph-name="oneinferior" unicode="&#x2081;" horiz-adv-x="217" 
d="M154 -105h-84v260h-35v49l119 18v-327z" />
    <glyph glyph-name="twoinferior" unicode="&#x2082;" horiz-adv-x="291" 
d="M255 -105h-229v39l75 78c31 32 61 64 61 103c0 34 -25 46 -45 46c-25 0 -51 -10 -83 -36v66c22 17 65 33 101 33c64 0 113 -38 113 -99c0 -54 -36 -93 -66 -120l-53 -46h126v-64z" />
    <glyph glyph-name="threeinferior" unicode="&#x2083;" horiz-adv-x="305" 
d="M269 -3c0 -69 -56 -111 -128 -111c-45 0 -81 15 -104 34v65c27 -25 59 -40 91 -40c35 0 57 20 57 54c0 30 -18 48 -47 48c-18 0 -35 -10 -43 -18l-29 34l95 88h-123v64h227v-39l-85 -78c49 -7 89 -43 89 -101z" />
    <glyph glyph-name="fourinferior" unicode="&#x2084;" horiz-adv-x="349" 
d="M319 -34h-60v-71h-84v71h-145v41l155 210h74v-193h60v-58zM175 24v101l-76 -101h76z" />
    <glyph glyph-name="fiveinferior" unicode="&#x2085;" horiz-adv-x="304" 
d="M268 0c0 -72 -55 -114 -127 -114c-45 0 -81 15 -104 34v65c27 -25 59 -40 91 -40c35 0 55 22 55 53c0 30 -19 47 -49 47c-22 0 -42 -11 -53 -27l-32 15v182h206v-64h-143v-61c10 7 27 12 49 12c63 0 107 -41 107 -102z" />
    <glyph glyph-name="sixinferior" unicode="&#x2086;" horiz-adv-x="330" 
d="M293 -2c0 -67 -54 -112 -125 -112c-55 0 -129 26 -129 152c0 114 53 186 151 186c37 0 71 -13 83 -22v-59c-21 13 -49 22 -74 22c-41 0 -72 -22 -75 -85c10 12 38 24 64 24c65 0 105 -44 105 -106zM210 -6c0 35 -12 57 -42 57c-24 0 -46 -15 -46 -53s17 -60 44 -60
c30 0 44 21 44 56z" />
    <glyph glyph-name="seveninferior" unicode="&#x2087;" horiz-adv-x="294" 
d="M266 177c-27 -40 -102 -181 -119 -282h-88c21 100 99 231 117 256h-151v64h241v-38z" />
    <glyph glyph-name="eightinferior" unicode="&#x2088;" horiz-adv-x="338" 
d="M301 -16c0 -61 -59 -98 -132 -98s-132 37 -132 98c0 43 29 73 70 89c-34 15 -50 41 -50 71c0 49 52 81 112 81c59 0 112 -32 112 -81c0 -30 -17 -56 -51 -71c41 -16 71 -46 71 -89zM205 137c0 24 -11 40 -36 40c-24 0 -37 -16 -37 -40c0 -19 13 -40 37 -40
c25 0 36 21 36 40zM218 -10c0 31 -17 53 -49 53c-31 0 -49 -22 -49 -53c0 -32 18 -54 49 -54c32 0 49 22 49 54z" />
    <glyph glyph-name="nineinferior" unicode="&#x2089;" horiz-adv-x="330" 
d="M291 73c0 -114 -53 -186 -150 -186c-37 0 -72 13 -83 22v59c21 -13 49 -22 74 -22c41 0 71 22 74 85c-10 -12 -38 -24 -63 -24c-65 0 -106 44 -106 106c0 67 54 112 125 112c55 0 129 -26 129 -152zM208 113c0 38 -16 60 -43 60c-30 0 -44 -21 -44 -56s12 -57 41 -57
c24 0 46 15 46 53z" />
    <glyph glyph-name="zerosuperior" unicode="&#x2070;" horiz-adv-x="360" 
d="M322 518c0 -108 -61 -170 -142 -170s-142 62 -142 170c0 107 61 169 142 169s142 -62 142 -169zM235 518c0 77 -21 107 -55 107c-35 0 -54 -30 -54 -107c0 -78 19 -108 54 -108c34 0 55 30 55 108z" />
    <glyph glyph-name="foursuperior" unicode="&#x2074;" horiz-adv-x="349" 
d="M319 428h-60v-71h-84v71h-145v41l155 210h74v-193h60v-58zM175 486v101l-76 -101h76z" />
    <glyph glyph-name="fivesuperior" unicode="&#x2075;" horiz-adv-x="304" 
d="M268 462c0 -72 -55 -114 -127 -114c-45 0 -81 15 -104 34v65c27 -25 59 -40 91 -40c35 0 55 22 55 53c0 30 -19 47 -49 47c-22 0 -42 -11 -53 -27l-32 15v182h206v-64h-143v-61c10 7 27 12 49 12c63 0 107 -41 107 -102z" />
    <glyph glyph-name="sixsuperior" unicode="&#x2076;" horiz-adv-x="330" 
d="M293 460c0 -67 -54 -112 -125 -112c-55 0 -129 26 -129 152c0 114 53 186 151 186c37 0 71 -13 83 -22v-59c-21 13 -49 22 -74 22c-41 0 -72 -22 -75 -85c10 12 38 24 64 24c65 0 105 -44 105 -106zM210 456c0 35 -12 57 -42 57c-24 0 -46 -15 -46 -53s17 -60 44 -60
c30 0 44 21 44 56z" />
    <glyph glyph-name="sevensuperior" unicode="&#x2077;" horiz-adv-x="294" 
d="M266 639c-27 -40 -102 -181 -119 -282h-88c21 100 99 231 117 256h-151v64h241v-38z" />
    <glyph glyph-name="eightsuperior" unicode="&#x2078;" horiz-adv-x="338" 
d="M301 446c0 -61 -59 -98 -132 -98s-132 37 -132 98c0 43 29 73 70 89c-34 15 -50 41 -50 71c0 49 52 81 112 81c59 0 112 -32 112 -81c0 -30 -17 -56 -51 -71c41 -16 71 -46 71 -89zM205 599c0 24 -11 40 -36 40c-24 0 -37 -16 -37 -40c0 -19 13 -40 37 -40
c25 0 36 21 36 40zM218 452c0 31 -17 53 -49 53c-31 0 -49 -22 -49 -53c0 -32 18 -54 49 -54c32 0 49 22 49 54z" />
    <glyph glyph-name="ninesuperior" unicode="&#x2079;" horiz-adv-x="330" 
d="M291 535c0 -114 -53 -186 -150 -186c-37 0 -72 13 -83 22v59c21 -13 49 -22 74 -22c41 0 71 22 74 85c-10 -12 -38 -24 -63 -24c-65 0 -106 44 -106 106c0 67 54 112 125 112c55 0 129 -26 129 -152zM208 575c0 38 -16 60 -43 60c-30 0 -44 -21 -44 -56s12 -57 41 -57
c24 0 46 15 46 53z" />
    <glyph glyph-name="questiondown.caps" horiz-adv-x="444" 
d="M213 600h112v-112h-112v112zM28 141c0 94 68 146 165 191l32 15v76h88v-126l-46 -22c-95 -45 -118 -81 -118 -126c0 -52 42 -76 96 -76c56 0 130 33 176 76v-101c-41 -36 -119 -64 -190 -64c-106 0 -203 49 -203 157z" />
    <glyph glyph-name="exclamdown.caps" horiz-adv-x="265" 
d="M188 488h-111v112h111v-112zM206 0h-147l40 422h68z" />
    <glyph glyph-name="at.caps" horiz-adv-x="706" 
d="M674 354c0 -134 -104 -248 -193 -248c-45 0 -63 23 -72 48c-23 -29 -54 -51 -96 -51c-86 0 -128 84 -110 187c18 101 102 184 190 184c27 0 43 -5 64 -17h69l-44 -250c-7 -39 0 -55 26 -55c49 0 115 83 115 200c0 132 -109 213 -228 213c-159 0 -287 -137 -287 -295
c0 -164 118 -265 261 -265c80 0 149 23 215 64l16 -31c-79 -57 -164 -77 -239 -77c-183 0 -327 132 -327 306c0 193 160 351 356 351c158 0 284 -105 284 -264zM444 406c-10 9 -22 18 -50 18c-54 0 -96 -54 -110 -136c-13 -78 0 -129 52 -129c34 0 71 34 80 85z" />
    <glyph glyph-name="zero.small" horiz-adv-x="452" 
d="M414 218c0 -145 -81 -230 -188 -230s-188 85 -188 230c0 144 81 229 188 229s188 -85 188 -229zM303 218c0 103 -28 145 -77 145s-77 -42 -77 -145c0 -104 29 -146 77 -146c49 0 77 42 77 146z" />
    <glyph glyph-name="one.small" horiz-adv-x="264" 
d="M191 0h-111v353h-46v66l157 24v-443z" />
    <glyph glyph-name="two.small" horiz-adv-x="363" 
d="M327 0h-303v55l103 109c41 42 79 82 79 133c0 45 -34 62 -64 62c-33 0 -69 -14 -107 -46v88c25 22 86 45 133 45c83 0 150 -50 150 -132c0 -75 -46 -126 -89 -164l-73 -65h171v-85z" />
    <glyph glyph-name="three.small" horiz-adv-x="382" 
d="M347 138c0 -95 -79 -150 -171 -150c-57 0 -110 19 -139 46v86c34 -34 76 -53 120 -53c49 0 82 27 82 73c0 41 -24 63 -65 63c-25 0 -42 -11 -54 -21l-44 50l122 116h-160v85h302v-50l-115 -109c68 -8 122 -55 122 -136z" />
    <glyph glyph-name="four.small" horiz-adv-x="437" 
d="M408 101h-79v-101h-107v101h-196v55l207 278h96v-258h79v-75zM222 176v132l-97 -132h97z" />
    <glyph glyph-name="five.small" horiz-adv-x="380" 
d="M345 141c0 -97 -77 -153 -169 -153c-57 0 -110 19 -139 46v86c34 -33 76 -53 120 -53c49 0 79 28 79 72c0 40 -26 63 -69 63c-32 0 -54 -11 -68 -36l-47 20v247h275v-85h-189v-84c12 9 34 17 66 17c84 0 141 -54 141 -140z" />
    <glyph glyph-name="six.small" horiz-adv-x="414" 
d="M377 139c0 -90 -71 -151 -165 -151c-74 0 -172 35 -172 205c0 156 71 253 200 253c51 0 95 -18 110 -30v-78c-27 16 -64 29 -96 29c-58 0 -102 -27 -105 -123c14 21 54 40 92 40c81 0 136 -58 136 -145zM270 136c0 43 -21 75 -59 75c-30 0 -64 -19 -64 -70s26 -82 62 -82
c38 0 61 34 61 77z" />
    <glyph glyph-name="seven.small" horiz-adv-x="366" 
d="M340 384c-35 -54 -136 -248 -159 -384h-113c28 135 131 315 154 348h-202v85h320v-49z" />
    <glyph glyph-name="eight.small" horiz-adv-x="427" 
d="M391 120c0 -82 -79 -132 -176 -132c-98 0 -178 50 -178 132c0 59 39 100 93 121c-44 20 -67 56 -67 97c0 66 72 109 152 109c78 0 150 -43 150 -109c0 -41 -23 -77 -67 -97c54 -21 93 -62 93 -121zM263 330c0 30 -17 51 -48 51c-33 0 -51 -21 -51 -51
c0 -26 19 -52 51 -52c31 0 48 26 48 52zM282 128c0 42 -27 71 -67 71c-42 0 -69 -29 -69 -71c0 -40 27 -70 69 -70c40 0 67 30 67 70z" />
    <glyph glyph-name="nine.small" horiz-adv-x="414" 
d="M374 242c0 -156 -72 -253 -200 -253c-51 0 -95 18 -111 30v78c28 -16 65 -29 98 -29c57 0 101 27 104 123c-15 -20 -54 -40 -93 -40c-80 0 -135 59 -135 145c0 90 71 151 164 151c74 0 173 -35 173 -205zM266 294c0 51 -25 82 -61 82c-38 0 -61 -34 -61 -76
c0 -43 21 -76 59 -76c30 0 63 19 63 70z" />
    <glyph glyph-name="onequarter.small" horiz-adv-x="505" 
d="M455 47h-44v-47h-72v47h-105v35l112 150h65v-137h44v-48zM150 202h-71v183h-26v40l97 13v-236zM339 95v68l-52 -68h52zM388 430l-277 -444l-34 17l277 444z" />
    <glyph glyph-name="onehalf.small" horiz-adv-x="510" 
d="M461 0h-176v31l52 53c24 24 46 46 46 73c0 21 -18 29 -32 29c-18 0 -36 -7 -60 -26v54c16 12 51 23 78 23c47 0 86 -27 86 -72c0 -39 -25 -65 -50 -86l-33 -28h89v-51zM150 202h-71v183h-26v40l97 13v-236zM388 430l-277 -444l-34 17l277 444z" />
    <glyph glyph-name="threequarters.small" horiz-adv-x="541" 
d="M491 47h-44v-47h-72v47h-105v35l112 150h65v-137h44v-48zM431 430l-277 -444l-34 17l277 444zM230 276c0 -51 -46 -80 -99 -80c-33 0 -63 10 -80 25v50c20 -18 45 -27 67 -27c24 0 41 12 41 34c0 19 -13 30 -31 30c-13 0 -26 -8 -31 -13l-24 27l67 60h-88v51h173v-31
l-60 -53c36 -6 65 -31 65 -73zM375 95v68l-51 -68h51z" />
    <glyph glyph-name="periodcentered.small" horiz-adv-x="254" 
d="M187 165h-121v121h121v-121z" />
    <glyph glyph-name="endash.allsmall" horiz-adv-x="404" 
d="M405 194h-406v62h406v-62z" />
    <glyph glyph-name="emdash.allsmall" horiz-adv-x="646" 
d="M647 194h-648v62h648v-62z" />
    <glyph glyph-name="at.small" horiz-adv-x="635" 
d="M607 219c0 -121 -94 -223 -174 -223c-41 0 -57 20 -65 43c-21 -26 -49 -46 -86 -46c-78 0 -116 75 -99 168c16 90 91 166 171 166c24 0 38 -5 57 -16h62l-39 -225c-6 -36 0 -49 23 -49c44 0 104 75 104 180c0 119 -98 192 -206 192c-143 0 -258 -124 -258 -266
c0 -147 106 -238 235 -238c72 0 134 20 194 57l14 -28c-71 -51 -148 -69 -215 -69c-165 0 -294 119 -294 275c0 174 144 316 320 316c142 0 256 -94 256 -237zM400 265c-9 9 -20 17 -45 17c-49 0 -87 -49 -99 -123c-11 -70 0 -116 46 -116c31 0 64 31 72 77z" />
    <glyph glyph-name="asciitilde.small" horiz-adv-x="445" 
d="M380 289c0 -92 -35 -131 -90 -131c-45 0 -98 55 -142 55c-24 0 -32 -14 -41 -51h-43c0 92 35 131 90 131c45 0 98 -55 142 -55c24 0 32 14 41 51h43z" />
    <glyph glyph-name="dollar.allsmall" horiz-adv-x="376" 
d="M344 137c0 -92 -63 -129 -138 -137v-64h-34v63c-67 2 -117 29 -144 52l22 77c24 -18 69 -48 122 -52v101c-104 28 -136 70 -136 133c0 74 54 119 136 124v59h34v-59c49 -4 92 -22 116 -39l-21 -72c-29 17 -60 29 -95 33v-78c98 -26 138 -69 138 -141zM172 287v70
c-26 -3 -39 -16 -39 -35c0 -16 9 -27 39 -35zM248 123c0 19 -12 34 -42 44v-89c27 4 42 21 42 45z" />
    <glyph glyph-name="cent.allsmall" horiz-adv-x="370" 
d="M249 33v-71h-35v69c-101 3 -179 76 -179 182c0 105 78 178 179 181v73h35v-75c39 -4 72 -16 96 -34v-84c-29 25 -61 36 -96 37v-197c35 1 68 12 96 37v-84c-24 -18 -57 -30 -96 -34zM214 118v189c-38 -11 -67 -43 -67 -94c0 -52 29 -84 67 -95z" />
    <glyph glyph-name="Euro.allsmall" horiz-adv-x="428" 
d="M386 20c-25 -18 -76 -30 -116 -30c-102 0 -171 60 -191 165h-45v40h40v43h-40v40h45c18 106 89 167 191 167c40 0 86 -11 116 -30v-85c-29 25 -64 34 -100 34c-53 0 -85 -21 -96 -86h111v-40h-114c-1 -6 -1 -13 -1 -20c0 -8 0 -16 1 -23h114v-40h-111
c12 -63 43 -84 96 -84c35 0 70 10 100 34v-85z" />
    <glyph glyph-name="sterling.allsmall" horiz-adv-x="418" 
d="M370 0h-339v79c50 0 66 11 66 71v40h-56v64h56v17c0 129 64 174 151 174c39 0 82 -14 104 -30v-81c-26 19 -60 33 -90 33c-42 0 -67 -19 -67 -94v-19h107v-64h-107v-11c0 -62 -21 -88 -41 -100h216v-79z" />
    <glyph glyph-name="yen.allsmall" horiz-adv-x="471" 
d="M462 433l-146 -221h60v-40h-84v-41h84v-40h-84v-91h-112v91h-85v40h85v41h-85v40h60l-144 221h122l105 -168l104 168h120z" />
    <glyph glyph-name="percent.allsmall" horiz-adv-x="521" 
d="M248 336c0 -60 -43 -108 -105 -108c-63 0 -105 48 -105 108c0 59 42 108 105 108c62 0 105 -49 105 -108zM484 100c0 -60 -43 -109 -105 -109c-63 0 -106 49 -106 109c0 59 43 107 106 107c62 0 105 -48 105 -107zM181 336c0 42 -15 58 -38 58c-24 0 -38 -16 -38 -58
c0 -43 14 -58 38 -58c23 0 38 15 38 58zM416 100c0 42 -14 57 -37 57c-24 0 -38 -15 -38 -57c0 -43 14 -58 38 -58c23 0 37 15 37 58zM416 430l-277 -444l-34 17l277 444z" />
    <glyph glyph-name="perthousand.allsmall" horiz-adv-x="763" 
d="M726 100c0 -60 -43 -109 -106 -109s-105 49 -105 109c0 59 42 107 105 107s106 -48 106 -107zM659 100c0 42 -15 57 -39 57c-23 0 -37 -15 -37 -57c0 -43 14 -58 37 -58c24 0 39 15 39 58zM248 336c0 -60 -43 -108 -105 -108c-63 0 -105 48 -105 108c0 59 42 108 105 108
c62 0 105 -49 105 -108zM484 100c0 -60 -43 -109 -105 -109c-63 0 -106 49 -106 109c0 59 43 107 106 107c62 0 105 -48 105 -107zM181 336c0 42 -15 58 -38 58c-24 0 -38 -16 -38 -58c0 -43 14 -58 38 -58c23 0 38 15 38 58zM416 100c0 42 -14 57 -37 57
c-24 0 -38 -15 -38 -57c0 -43 14 -58 38 -58c23 0 37 15 37 58zM416 430l-277 -444l-34 17l277 444z" />
    <glyph glyph-name="plus.allsmall" horiz-adv-x="454" 
d="M406 190h-145v-146h-67v146h-146v67h146v145h67v-145h145v-67z" />
    <glyph glyph-name="minus.allsmall" horiz-adv-x="454" 
d="M375 190h-295v67h295v-67z" />
    <glyph glyph-name="multiply.allsmall" horiz-adv-x="454" 
d="M387 111l-47 -48l-112 113l-113 -113l-48 48l113 112l-112 112l48 48l111 -112l112 112l48 -49l-112 -111z" />
    <glyph glyph-name="divide.allsmall" horiz-adv-x="454" 
d="M272 317h-90v91h90v-91zM406 191h-358v67h358v-67zM272 41h-90v90h90v-90z" />
    <glyph glyph-name="equal.allsmall" horiz-adv-x="454" 
d="M373 259h-292v67h292v-67zM373 121h-292v67h292v-67z" />
    <glyph glyph-name="notequal.allsmall" horiz-adv-x="454" 
d="M373 122h-188l-65 -95l-35 22l49 73h-53v67h97l48 70h-145v68h189l64 95l35 -23l-49 -72h53v-68h-97l-47 -70h144v-67z" />
    <glyph glyph-name="approxequal.allsmall" horiz-adv-x="454" 
d="M370 276c0 0 -35 -33 -74 -33c-45 0 -97 33 -138 33c-38 0 -75 -33 -75 -33v67s36 33 75 33c45 0 97 -33 138 -33c38 0 74 33 74 33v-67zM370 138c0 0 -35 -33 -74 -33c-45 0 -97 33 -138 33c-38 0 -75 -33 -75 -33v68s36 33 75 33c45 0 97 -33 138 -33c38 0 74 33 74 33
v-68z" />
    <glyph glyph-name="less.allsmall" horiz-adv-x="454" 
d="M402 58l-34 -50l-314 217l314 218l34 -50l-233 -168z" />
    <glyph glyph-name="greater.allsmall" horiz-adv-x="454" 
d="M87 443l314 -218l-314 -217l-35 50l234 167l-234 168z" />
    <glyph glyph-name="degree.allsmall" horiz-adv-x="385" 
d="M341 289c0 -83 -67 -150 -150 -150c-82 0 -150 67 -150 150c0 82 68 150 150 150c83 0 150 -68 150 -150zM286 289c0 52 -42 95 -95 95c-52 0 -94 -43 -94 -95s42 -95 94 -95c53 0 95 43 95 95z" />
    <glyph glyph-name="infinity.allsmall" horiz-adv-x="698" 
d="M661 223c0 -75 -56 -136 -141 -136c-53 0 -126 51 -170 94c-46 -43 -119 -94 -172 -94c-86 0 -141 61 -141 136c0 76 55 137 141 137c53 0 126 -51 172 -95c44 44 117 95 170 95c85 0 141 -61 141 -137zM523 296c-36 0 -94 -43 -128 -73c33 -28 92 -73 128 -73
c41 0 71 35 71 73c0 40 -30 73 -71 73zM175 296c-41 0 -71 -33 -71 -73c0 -38 30 -73 71 -73c38 0 91 45 121 73c-32 30 -83 73 -121 73z" />
    <glyph glyph-name="logicalnot.allsmall" horiz-adv-x="562" 
d="M453 80h-67v112h-305v67h372v-179z" />
    <glyph glyph-name="pi.allsmall" horiz-adv-x="524" 
d="M496 345h-55v-345h-112v345h-134v-345h-112v345h-55v88h468v-88z" />
    <glyph glyph-name="ordfeminine.allsmall" horiz-adv-x="440" 
d="M427 214h-100l-35 85h-148l-34 -85h-97l165 390h84zM219 493l-50 -128h99z" />
    <glyph glyph-name="ordmasculine.allsmall" horiz-adv-x="496" 
d="M463 409c0 -119 -97 -206 -216 -206c-118 0 -215 87 -215 206s97 205 215 205c119 0 216 -86 216 -205zM358 409c0 77 -43 127 -111 127c-67 0 -110 -50 -110 -127c0 -76 43 -128 110 -128c68 0 111 52 111 128z" />
    <glyph glyph-name="question.allsmall" horiz-adv-x="347" 
d="M318 331c0 -69 -45 -105 -121 -139l-17 -7v-26h-81v71l33 16c59 29 74 50 74 76c0 30 -23 43 -54 43c-40 0 -90 -24 -126 -55v88c32 28 89 48 141 48c80 0 151 -35 151 -115zM193 0h-107v107h107v-107z" />
    <glyph glyph-name="questiondown.allsmall" horiz-adv-x="347" 
d="M154 433h107v-107h-107v107zM29 102c0 69 42 106 121 139l17 7v26h81v-71l-33 -16c-59 -29 -74 -50 -74 -76c0 -30 23 -43 54 -43c40 0 90 24 126 55v-88c-32 -28 -89 -48 -141 -48c-80 0 -151 35 -151 115z" />
    <glyph glyph-name="exclam.allsmall" horiz-adv-x="226" 
d="M181 433l-38 -274h-61l-37 274h136zM166 0h-107v107h107v-107z" />
    <glyph glyph-name="exclamdown.allsmall" horiz-adv-x="226" 
d="M166 433v-107h-107v107h107zM181 0h-136l37 274h61z" />
    <glyph glyph-name="bullet.allsmall" horiz-adv-x="283" 
d="M142 353c49 0 88 -39 88 -88s-39 -89 -88 -89s-89 40 -89 89s40 88 89 88z" />
    <glyph glyph-name="asterisk.allsmall" horiz-adv-x="407" 
d="M366 164c-13 -24 -43 -30 -67 -16c-27 16 -31 47 -81 84c8 -61 32 -79 32 -110c0 -28 -19 -52 -46 -52s-47 24 -47 52c0 30 25 49 33 110c-50 -36 -54 -68 -81 -83c-24 -13 -54 -7 -67 15c-14 23 -4 54 20 67c26 14 55 2 113 26c-58 25 -86 13 -112 28
c-24 14 -34 43 -21 66c13 24 43 30 67 16c27 -16 31 -47 81 -85c-7 62 -32 80 -32 112c0 27 19 51 46 51s47 -24 47 -51c0 -32 -25 -50 -33 -111c50 37 54 68 81 83c24 13 54 9 67 -15s4 -53 -20 -67c-26 -15 -56 -2 -114 -27c58 -24 86 -11 113 -27c24 -14 34 -43 21 -66z
" />
    <glyph glyph-name="quotesingle.allsmall" horiz-adv-x="235" 
d="M182 433l-45 -233h-39l-45 233h129z" />
    <glyph glyph-name="quotedbl.allsmall" horiz-adv-x="414" 
d="M358 433l-43 -233h-38l-42 233h123zM179 433l-43 -233h-38l-43 233h124z" />
    <glyph glyph-name="quoteleft.allsmall" horiz-adv-x="243" 
d="M163 442l18 -30c-40 -23 -55 -63 -55 -102h53v-113h-113v95c0 70 35 131 97 150z" />
    <glyph glyph-name="quoteright.allsmall" horiz-adv-x="243" 
d="M177 338c0 -70 -34 -131 -97 -150l-18 30c41 22 56 62 56 102h-54v113h113v-95z" />
    <glyph glyph-name="quotedblleft.allsmall" horiz-adv-x="425" 
d="M247 293c0 70 34 131 97 150l18 -30c-41 -22 -56 -62 -56 -102h54v-113h-113v95zM65 293c0 70 34 131 97 150l17 -30c-39 -22 -55 -62 -55 -102h54v-113h-113v95z" />
    <glyph glyph-name="quotedblright.allsmall" horiz-adv-x="425" 
d="M359 338c0 -70 -34 -131 -97 -150l-17 30c39 22 55 62 55 102h-54v113h113v-95zM177 338c0 -70 -34 -131 -97 -150l-18 30c41 22 56 62 56 102h-54v113h113v-95z" />
    <glyph glyph-name="guillemotleft.allsmall" horiz-adv-x="435" 
d="M407 111l-27 -31l-181 145l181 144l27 -32l-116 -113zM279 74l-27 -32l-224 183l224 181l27 -31l-151 -151z" />
    <glyph glyph-name="guillemotright.allsmall" horiz-adv-x="436" 
d="M408 225l-224 -183l-27 32l151 150l-151 151l27 31zM237 225l-182 -145l-27 31l116 113l-116 113l27 32z" />
    <glyph glyph-name="guilsinglleft.allsmall" horiz-adv-x="307" 
d="M279 74l-27 -32l-224 183l224 181l27 -31l-146 -151z" />
    <glyph glyph-name="guilsinglright.allsmall" horiz-adv-x="307" 
d="M279 225l-224 -183l-27 32l146 150l-146 151l27 31z" />
    <glyph glyph-name="parenleft.allsmall" horiz-adv-x="265" 
d="M235 -81l-23 -19c-92 75 -149 190 -149 313s57 238 148 313l24 -19c-40 -45 -95 -157 -95 -294s55 -249 95 -294z" />
    <glyph glyph-name="parenright.allsmall" horiz-adv-x="265" 
d="M202 213c0 -123 -57 -238 -149 -313l-23 19c40 45 95 157 95 294s-55 249 -95 294l24 19c91 -75 148 -190 148 -313z" />
    <glyph glyph-name="bracketleft.allsmall" horiz-adv-x="268" 
d="M226 -84h-135v593h135v-42h-61v-508h61v-43z" />
    <glyph glyph-name="bracketright.allsmall" horiz-adv-x="268" 
d="M177 -84h-135v43h61v508h-61v42h135v-593z" />
    <glyph glyph-name="braceleft.allsmall" horiz-adv-x="264" 
d="M221 -75l-19 -25c-63 36 -97 66 -97 167c0 103 -20 120 -62 135v24c42 14 62 31 62 134c0 101 34 131 97 167l19 -24c-39 -29 -39 -64 -39 -147c0 -104 -33 -130 -85 -142c52 -13 85 -39 85 -143c0 -83 0 -118 39 -146z" />
    <glyph glyph-name="braceright.allsmall" horiz-adv-x="264" 
d="M220 202c-42 -15 -62 -32 -62 -135c0 -101 -34 -131 -97 -167l-18 25c39 28 38 63 38 146c0 104 34 130 85 143c-51 12 -85 38 -85 142c0 83 1 118 -38 147l18 24c63 -36 97 -66 97 -167c0 -103 20 -120 62 -134v-24z" />
    <glyph glyph-name="slash.allsmall" horiz-adv-x="271" 
d="M255 434l-201 -449l-38 14l201 451z" />
    <glyph glyph-name="backslash.allsmall" horiz-adv-x="271" 
d="M255 -1l-39 -14l-201 449l39 16z" />
    <glyph glyph-name="bar.allsmall" horiz-adv-x="200" 
d="M123 -69h-46v564h46v-564z" />
    <glyph glyph-name="ampersand.allsmall" horiz-adv-x="505" 
d="M498 46c-29 -43 -70 -57 -99 -57c-30 0 -58 6 -93 31c-25 -19 -59 -31 -101 -31c-89 0 -165 43 -165 124c0 55 35 90 77 117c-21 36 -32 71 -32 102c0 64 62 113 138 113c72 0 121 -43 121 -98c0 -60 -59 -93 -113 -125c21 -30 45 -56 65 -75c3 14 7 64 7 86h141v-64h-66
c-2 -25 -7 -59 -21 -86c22 -20 36 -25 54 -25c17 0 36 11 54 30zM257 347c0 19 -14 33 -36 33c-32 0 -44 -26 -44 -48c0 -20 7 -39 16 -58c36 21 64 42 64 73zM249 69c-28 26 -61 60 -89 99c-11 -14 -19 -29 -19 -47c0 -34 24 -63 69 -63c15 0 27 4 39 11z" />
    <glyph glyph-name="numbersign.allsmall" horiz-adv-x="353" 
d="M328 343l-9 -51h-52l-14 -83h53l-9 -51h-53l-15 -90h-50l15 90h-69l-15 -90h-49l15 90h-52l8 51h53l13 83h-52l9 51h52l16 90h49l-15 -90h69l15 90h50l-15 -90h52zM217 292h-69l-13 -83h69z" />
    <glyph glyph-name="copyright.allsmall" horiz-adv-x="514" 
d="M486 217c0 -127 -102 -229 -228 -229c-127 0 -229 102 -229 229c0 126 102 228 229 228c126 0 228 -102 228 -228zM454 217c0 109 -87 196 -196 196c-110 0 -197 -87 -197 -196c0 -110 87 -197 197 -197c109 0 196 87 196 197zM359 102c-23 -17 -56 -27 -94 -27
c-77 0 -144 54 -144 142c0 87 67 141 144 141c38 0 71 -10 94 -27v-60c-23 18 -44 31 -85 31c-43 0 -81 -29 -81 -85s38 -85 81 -85c41 0 64 13 85 30v-60z" />
    <glyph glyph-name="Q.alt" horiz-adv-x="726" 
d="M560 300c0 130 -78 220 -196 220c-120 0 -199 -90 -199 -220s79 -220 199 -220c118 0 196 90 196 220zM461 -4l27 -47c29 -50 54 -66 94 -66c29 0 58 13 79 37l37 -50c-26 -36 -69 -69 -146 -69c-71 0 -131 36 -171 111l-39 72c-173 10 -305 139 -305 316
c0 184 143 317 327 317c183 0 324 -133 324 -317c0 -150 -93 -266 -227 -304z" />
    <glyph glyph-name="Q.alt2" horiz-adv-x="726" 
d="M560 300c0 130 -78 220 -196 220c-120 0 -199 -90 -199 -220s79 -220 199 -220c118 0 196 90 196 220zM529 24l117 -158h-142l-86 121c-18 -3 -36 -4 -54 -4c-184 0 -327 133 -327 317s143 317 327 317c183 0 324 -133 324 -317c0 -123 -63 -223 -159 -276z" />
    <glyph glyph-name="a.alt" horiz-adv-x="504" 
d="M473 9c-11 -9 -40 -18 -65 -18c-46 0 -74 21 -84 53c-29 -45 -84 -57 -123 -57c-92 0 -162 74 -162 184c0 108 70 183 162 183c38 0 93 -14 123 -58l3 45h104v-261c0 -26 8 -33 21 -33c8 0 15 2 21 4v-42zM151 171c0 -67 41 -102 86 -102c43 0 86 33 86 102
s-43 101 -86 101c-45 0 -86 -35 -86 -101z" />
    <glyph glyph-name="aacute.alt" horiz-adv-x="504" 
d="M476 9c-11 -9 -40 -18 -65 -18c-46 0 -74 21 -84 53c-29 -45 -84 -57 -123 -57c-92 0 -162 74 -162 184c0 108 70 183 162 183c38 0 93 -14 123 -58l3 45h104v-261c0 -26 8 -33 21 -33c8 0 15 2 21 4v-42zM154 171c0 -67 41 -102 86 -102c43 0 86 33 86 102
s-43 101 -86 101c-45 0 -86 -35 -86 -101zM364 487l-173 -84l-18 30l147 122z" />
    <glyph glyph-name="acircumflex.alt" horiz-adv-x="504" 
d="M476 9c-11 -9 -40 -18 -65 -18c-46 0 -74 21 -84 53c-29 -45 -84 -57 -123 -57c-92 0 -162 74 -162 184c0 108 70 183 162 183c38 0 93 -14 123 -58l3 45h104v-261c0 -26 8 -33 21 -33c8 0 15 2 21 4v-42zM154 171c0 -67 41 -102 86 -102c43 0 86 33 86 102
s-43 101 -86 101c-45 0 -86 -35 -86 -101zM383 441l-33 -34l-98 76l-97 -76l-33 34l130 121z" />
    <glyph glyph-name="adieresis.alt" horiz-adv-x="504" 
d="M476 9c-11 -9 -40 -18 -65 -18c-46 0 -74 21 -84 53c-29 -45 -84 -57 -123 -57c-92 0 -162 74 -162 184c0 108 70 183 162 183c38 0 93 -14 123 -58l3 45h104v-261c0 -26 8 -33 21 -33c8 0 15 2 21 4v-42zM154 171c0 -67 41 -102 86 -102c43 0 86 33 86 102
s-43 101 -86 101c-45 0 -86 -35 -86 -101zM390 415h-90v90h90v-90zM209 415h-91v90h91v-90z" />
    <glyph glyph-name="agrave.alt" horiz-adv-x="504" 
d="M327 433l-18 -30l-173 84l44 68zM476 9c-11 -9 -40 -18 -65 -18c-46 0 -74 21 -84 53c-29 -45 -84 -57 -123 -57c-92 0 -162 74 -162 184c0 108 70 183 162 183c38 0 93 -14 123 -58l3 45h104v-261c0 -26 8 -33 21 -33c8 0 15 2 21 4v-42zM154 171c0 -67 41 -102 86 -102
c43 0 86 33 86 102s-43 101 -86 101c-45 0 -86 -35 -86 -101z" />
    <glyph glyph-name="aring.alt" horiz-adv-x="504" 
d="M476 9c-11 -9 -40 -18 -65 -18c-46 0 -74 21 -84 53c-29 -45 -84 -57 -123 -57c-92 0 -162 74 -162 184c0 108 70 183 162 183c38 0 93 -14 123 -58l3 45h104v-261c0 -26 8 -33 21 -33c8 0 15 2 21 4v-42zM154 171c0 -67 41 -102 86 -102c43 0 86 33 86 102
s-43 101 -86 101c-45 0 -86 -35 -86 -101zM351 506c0 -55 -43 -98 -99 -98s-99 43 -99 98c0 56 43 99 99 99s99 -43 99 -99zM303 506c0 29 -23 52 -51 52s-51 -23 -51 -52c0 -28 23 -50 51 -50s51 22 51 50z" />
    <glyph glyph-name="atilde.alt" horiz-adv-x="504" 
d="M476 9c-11 -9 -40 -18 -65 -18c-46 0 -74 21 -84 53c-29 -45 -84 -57 -123 -57c-92 0 -162 74 -162 184c0 108 70 183 162 183c38 0 93 -14 123 -58l3 45h104v-261c0 -26 8 -33 21 -33c8 0 15 2 21 4v-42zM154 171c0 -67 41 -102 86 -102c43 0 86 33 86 102
s-43 101 -86 101c-45 0 -86 -35 -86 -101zM387 520c0 -73 -31 -108 -76 -108c-43 0 -85 49 -121 49c-21 0 -27 -13 -30 -45h-44c0 73 31 108 76 108c43 0 85 -49 121 -49c22 0 27 13 31 45h43z" />
    <glyph glyph-name="d.alt" horiz-adv-x="504" 
d="M473 9c-11 -9 -40 -18 -65 -18c-46 0 -74 21 -84 53c-29 -45 -84 -57 -123 -57c-92 0 -162 74 -162 184c0 108 70 183 162 183c38 0 87 -14 118 -51v297h112v-520c0 -26 8 -33 21 -33c8 0 15 2 21 4v-42zM151 171c0 -67 41 -102 86 -102c43 0 86 33 86 102
s-43 101 -86 101c-45 0 -86 -35 -86 -101z" />
    <glyph glyph-name="t.alt" horiz-adv-x="308" 
d="M270 15c-18 -11 -50 -24 -93 -24c-63 0 -105 36 -105 113v165h-49v72h49v105h112v-105h83v-72h-83v-152c0 -37 9 -53 39 -53c20 0 37 7 47 14v-63z" />
    <glyph glyph-name="u.alt" horiz-adv-x="497" 
d="M466 9c-11 -9 -39 -18 -64 -18c-52 0 -82 23 -88 67c-19 -37 -75 -71 -127 -71c-92 0 -129 63 -129 149v205h112v-186c0 -56 20 -79 61 -79s81 39 81 83v182h112v-261c0 -26 9 -33 22 -33c8 0 15 2 20 4v-42z" />
    <glyph glyph-name="uacute.alt" horiz-adv-x="497" 
d="M469 9c-11 -9 -39 -18 -64 -18c-52 0 -82 23 -88 67c-19 -37 -75 -71 -127 -71c-92 0 -129 63 -129 149v205h112v-186c0 -56 20 -79 61 -79s81 39 81 83v182h112v-261c0 -26 9 -33 22 -33c8 0 15 2 20 4v-42zM360 487l-173 -84l-18 30l147 122z" />
    <glyph glyph-name="ucircumflex.alt" horiz-adv-x="497" 
d="M469 9c-11 -9 -39 -18 -64 -18c-52 0 -82 23 -88 67c-19 -37 -75 -71 -127 -71c-92 0 -129 63 -129 149v205h112v-186c0 -56 20 -79 61 -79s81 39 81 83v182h112v-261c0 -26 9 -33 22 -33c8 0 15 2 20 4v-42zM374 441l-33 -34l-98 76l-97 -76l-33 34l130 121z" />
    <glyph glyph-name="udieresis.alt" horiz-adv-x="497" 
d="M469 9c-11 -9 -39 -18 -64 -18c-52 0 -82 23 -88 67c-19 -37 -75 -71 -127 -71c-92 0 -129 63 -129 149v205h112v-186c0 -56 20 -79 61 -79s81 39 81 83v182h112v-261c0 -26 9 -33 22 -33c8 0 15 2 20 4v-42zM381 415h-90v90h90v-90zM200 415h-91v90h91v-90z" />
    <glyph glyph-name="ugrave.alt" horiz-adv-x="497" 
d="M308 433l-18 -30l-173 84l44 68zM469 9c-11 -9 -39 -18 -64 -18c-52 0 -82 23 -88 67c-19 -37 -75 -71 -127 -71c-92 0 -129 63 -129 149v205h112v-186c0 -56 20 -79 61 -79s81 39 81 83v182h112v-261c0 -26 9 -33 22 -33c8 0 15 2 20 4v-42z" />
    <glyph glyph-name="y.alt" horiz-adv-x="483" 
d="M424 4c0 -169 -109 -203 -202 -203c-51 0 -110 19 -148 43v84c50 -32 87 -44 142 -44s96 29 96 108v63c-20 -37 -78 -68 -125 -68c-92 0 -129 64 -129 149v205h112v-186c0 -55 21 -79 61 -79c41 0 81 39 81 83v182h112v-337z" />
    <glyph glyph-name="yacute.alt" horiz-adv-x="483" 
d="M427 4c0 -169 -109 -203 -202 -203c-51 0 -110 19 -148 43v84c50 -32 87 -44 142 -44s96 29 96 108v63c-20 -37 -78 -68 -125 -68c-92 0 -129 64 -129 149v205h112v-186c0 -55 21 -79 61 -79c41 0 81 39 81 83v182h112v-337zM369 487l-173 -84l-18 30l147 122z" />
    <glyph glyph-name="ydieresis.alt" horiz-adv-x="483" 
d="M427 4c0 -169 -109 -203 -202 -203c-51 0 -110 19 -148 43v84c50 -32 87 -44 142 -44s96 29 96 108v63c-20 -37 -78 -68 -125 -68c-92 0 -129 64 -129 149v205h112v-186c0 -55 21 -79 61 -79c41 0 81 39 81 83v182h112v-337zM381 415h-90v90h90v-90zM200 415h-91v90h91
v-90z" />
    <glyph glyph-name="mu.alt" horiz-adv-x="497" 
d="M170 -12v-183h-112v536h112v-186c0 -56 20 -79 61 -79s81 39 81 83v182h112v-261c0 -26 9 -33 22 -33c8 0 15 2 20 4v-42c-11 -9 -39 -18 -64 -18c-52 0 -82 23 -88 67c-19 -37 -75 -71 -127 -71c-6 0 -12 0 -17 1z" />
    <glyph glyph-name="ordfeminine.alt" horiz-adv-x="454" 
d="M426 302c-10 -8 -36 -16 -59 -16c-41 0 -66 19 -75 48c-27 -41 -76 -52 -111 -52c-83 0 -146 67 -146 166c0 97 63 165 146 165c34 0 84 -13 111 -53l2 41h94v-235c0 -23 7 -30 19 -30c7 0 13 2 19 4v-38zM136 448c0 -60 37 -92 77 -92c39 0 78 30 78 92s-39 91 -78 91
c-40 0 -77 -32 -77 -91z" />
    <glyph glyph-name="nbspace" unicode="&#xa0;" horiz-adv-x="173" 
 />
    <glyph glyph-name="onethird" unicode="&#x2153;" horiz-adv-x="659" 
d="M623 102c0 -69 -56 -111 -128 -111c-45 0 -81 15 -104 34v65c27 -25 59 -40 91 -40c35 0 57 20 57 54c0 30 -18 48 -47 48c-18 0 -35 -10 -43 -18l-29 34l95 88h-123v64h227v-39l-85 -78c49 -7 89 -43 89 -101zM512 598l-384 -616l-39 20l383 616zM178 280h-84v260h-34
v49l118 18v-327z" />
    <glyph glyph-name="twothirds" unicode="&#x2154;" horiz-adv-x="719" 
d="M270 280h-229v39l75 78c31 32 61 64 61 103c0 34 -25 46 -45 46c-25 0 -51 -10 -83 -36v66c22 17 65 33 101 33c64 0 113 -38 113 -99c0 -54 -36 -93 -66 -120l-53 -46h126v-64zM571 598l-383 -616l-40 20l384 616zM683 102c0 -69 -56 -111 -128 -111
c-45 0 -81 15 -104 34v65c27 -25 59 -40 91 -40c35 0 57 20 57 54c0 30 -18 48 -47 48c-18 0 -35 -10 -43 -18l-29 34l95 88h-123v64h227v-39l-85 -78c49 -7 89 -43 89 -101z" />
    <glyph glyph-name="oneeighth" unicode="&#x215b;" horiz-adv-x="662" 
d="M512 598l-384 -616l-39 20l383 616zM178 280h-84v260h-34v49l118 18v-327zM625 89c0 -61 -59 -98 -132 -98s-132 37 -132 98c0 43 29 73 70 89c-34 15 -50 41 -50 71c0 49 52 81 112 81c59 0 112 -32 112 -81c0 -30 -17 -56 -51 -71c41 -16 71 -46 71 -89zM529 242
c0 24 -11 40 -36 40c-24 0 -37 -16 -37 -40c0 -19 13 -40 37 -40c25 0 36 21 36 40zM542 95c0 31 -17 53 -49 53c-31 0 -49 -22 -49 -53c0 -32 18 -54 49 -54c32 0 49 22 49 54z" />
    <glyph glyph-name="threeeighths" unicode="&#x215c;" horiz-adv-x="719" 
d="M569 598l-383 -616l-40 20l384 616zM292 382c0 -69 -56 -111 -128 -111c-45 0 -82 15 -105 34v65c27 -25 60 -40 92 -40c34 0 57 20 57 54c0 30 -18 48 -47 48c-18 0 -35 -10 -43 -18l-30 34l96 88h-124v64h228v-39l-85 -78c49 -7 89 -43 89 -101zM682 89
c0 -61 -59 -98 -132 -98s-132 37 -132 98c0 43 29 73 70 89c-34 15 -50 41 -50 71c0 49 52 81 112 81c59 0 112 -32 112 -81c0 -30 -17 -56 -51 -71c41 -16 71 -46 71 -89zM586 242c0 24 -11 40 -36 40c-24 0 -37 -16 -37 -40c0 -19 13 -40 37 -40c25 0 36 21 36 40zM599 95
c0 31 -17 53 -49 53c-31 0 -49 -22 -49 -53c0 -32 18 -54 49 -54c32 0 49 22 49 54z" />
    <glyph glyph-name="fiveeighths" unicode="&#x215d;" horiz-adv-x="726" 
d="M288 385c0 -72 -55 -114 -127 -114c-45 0 -81 15 -104 34v65c27 -25 59 -40 91 -40c35 0 55 22 55 53c0 30 -19 47 -49 47c-22 0 -42 -11 -53 -27l-32 15v182h206v-64h-143v-61c10 7 27 12 49 12c63 0 107 -41 107 -102zM576 598l-384 -616l-39 20l383 616zM689 89
c0 -61 -59 -98 -132 -98s-132 37 -132 98c0 43 29 73 70 89c-34 15 -50 41 -50 71c0 49 52 81 112 81c59 0 112 -32 112 -81c0 -30 -17 -56 -51 -71c41 -16 71 -46 71 -89zM593 242c0 24 -11 40 -36 40c-24 0 -37 -16 -37 -40c0 -19 13 -40 37 -40c25 0 36 21 36 40zM606 95
c0 31 -17 53 -49 53c-31 0 -49 -22 -49 -53c0 -32 18 -54 49 -54c32 0 49 22 49 54z" />
    <glyph glyph-name="seveneighths" unicode="&#x215e;" horiz-adv-x="634" 
d="M266 562c-27 -40 -102 -181 -119 -282h-88c21 100 99 231 117 256h-151v64h241v-38zM484 598l-384 -616l-39 20l383 616zM597 89c0 -61 -59 -98 -132 -98s-132 37 -132 98c0 43 29 73 70 89c-34 15 -50 41 -50 71c0 49 52 81 112 81c59 0 112 -32 112 -81
c0 -30 -17 -56 -51 -71c41 -16 71 -46 71 -89zM501 242c0 24 -11 40 -36 40c-24 0 -37 -16 -37 -40c0 -19 13 -40 37 -40c25 0 36 21 36 40zM514 95c0 31 -17 53 -49 53c-31 0 -49 -22 -49 -53c0 -32 18 -54 49 -54c32 0 49 22 49 54z" />
    </font>
</defs>
</svg>
